<?xml version="1.0" standalone="no"?>

<!-- Translated from PostScript by ps2svg.ps. Ross Inglis. ringlis@ipv.com -->

<!DOCTYPE svg PUBLIC "-//W3C//DTD SVG 1.0//EN" "http://www.w3.org/TR/2001/REC-SVG-20010904/DTD/svg10.dtd">

<svg width="100%" viewBox="0 0 594 840" stroke="rgb(0,0,0)" fill="none">
<style type="text/css">text {font-family:Times-Roman;font-size:10;fill:black;stroke:none}</style>
<g stroke-miterlimit="10">
<g transform="matrix(0.3,0,0,-0.3,10,830)">
<path d="M0,0L0,500L500,500L500,0Z"/>
<g stroke="rgb(0,178,0)">
<path d="M175,100L325,100"/>
<path d="M250,100L180.0,160"/>
<path d="M250,100L320.0,130"/>
<path stroke="none" fill="rgb(127,229,102)" d="M320.0,180.0L310,180.0L290.0,190L290.0,200L310,210.0L325,190L325,180.0L310,180.0"/>
<path d="M320.0,180.0L310,180.0L290.0,190L290.0,200L310,210.0L325,190L325,180.0L310,180.0"/>
<path d="M250,100L250,230.0L320.0,180.0"/>
</g>
</g>
<g transform="matrix(0.3,0,0,-0.3,160,830)">
<path d="M0,0L0,500L500.0,500L500.0,0Z"/>
<path d="M125.0,100L165,100"/>
<path d="M145.0,100L205.0,180.0L285,180.0L365.0,100L345,100L285,180.0"/>
<path stroke="none" fill="rgb(229,153,153)" d="M245.0,185L274.927,182.907C274.975,183.604,275.0,184.302,275.0,185C275.0,201.568,261.568,215.0,245.0,215.0C228.432,215.0,215.0,201.568,215.0,185C215.0,184.127,215.038,183.255,215.114,182.385"/>
<path d="M245.0,185L274.927,182.907C274.975,183.604,275.0,184.302,275.0,185C275.0,201.568,261.568,215.0,245.0,215.0C228.432,215.0,215.0,201.568,215.0,185C215.0,184.127,215.038,183.255,215.114,182.385"/>
<path d="M245.0,185L270,185C270,197.132,261.289,207.514,249.341,209.62"/>
<path d="M375,100L325.0,100"/>
<path d="M235.0,180.0L205.0,100"/>
<path d="M255,180.0L275.0,100"/>
<path d="M235.0,180.0L195,100L205.0,100"/>
<path d="M210,100L270,100"/>
<path d="M213,120.0L267,120.0"/>
<path d="M220.0,140L260.0,140"/>
<path d="M230.0,160L255,160"/>
</g>
<g transform="matrix(0.3,0,0,-0.3,310,830)">
<path d="M0,0L0,500L500.0,500L500.0,0Z"/>
<g stroke="rgb(204,204,0)">
<path d="M180.0,100L180.0,180.0L180.0,150.0L170.0,170L160,170L160,160L180.0,150.0L190,170L190,160L180.0,150.0L180.0,130L170.0,150.0L160,150.0L160,140L180.0,130L190,150.0L200.0,150.0L180.0,130"/>
<path d="M250,100L250,200L250,180.0L240.0,200L230.0,200L230.0,190L250,180.0L250,170L260.0,190L270.0,190L270.0,180.0L250,170L250,160L240.0,180.0L230.0,180.0L230.0,170L250,160L250,150.0L260.0,170L270.0,170L270.0,160L250,150.0L250,150.0L240.0,160L230.0,160L230.0,150.0L250,140L250,120.0L240.0,140L230.0,140L230.0,130L250,120.0"/>
<path d="M320.0,100L320.0,170L320.0,150.0L310,170L300.0,170L300.0,160L320.0,150.0L320.0,140L330.0,160L340,160L340,150.0L320.0,140L320.0,130L310,150.0L300.0,150.0L300.0,140L320.0,130L320.0,120.0L330.0,140L340,140L340,130L320.0,120.0"/>
</g>
</g>
<g transform="matrix(0.3,0,0,-0.3,460,830)">
<path d="M0.0001,0L0.0001,500L500,500L500,0Z"/>
<path d="M120.0,100L200,200L225.0,155"/>
<path d="M200,115L300.0,250L400.0,120.0"/>
<path d="M300.0,250L250.0,144.0"/>
<path d="M300.0,250L270.0,160"/>
<path d="M300.0,250L275,175"/>
</g>
<g transform="matrix(0.3,0,0,-0.3,10,680)">
<path d="M0,0L0,500.0L500,500.0L500,0Z"/>
<path d="M120.0,100.0L200,200.0L225.0,155.0"/>
<path d="M200,195L200,165"/>
<path d="M200,115.0L275.0,220.0L325,230.0L400,120"/>
<path d="M285.0,220.0L250,144"/>
<path d="M295,220.0L270.0,160.0"/>
<path d="M300.0,230.0L275.0,175.0"/>
<path d="M310,230.0L300.0,200.0"/>
<path d="M320.0,230.0L340,180"/>
<path d="M315.0,250.0L250,250.0"/>
<path d="M230.0,250.0L130,250.0"/>
<path d="M285.0,235.0L85,235.0"/>
<path d="M275.0,223.0L120.0,223.0"/>
<path d="M270.0,210L240.0,210"/>
<path d="M220,210L100,210"/>
</g>
<g transform="matrix(0.3,0,0,-0.3,160,680)">
<path d="M0,0L0,500.0L500.0,500.0L500.0,0Z"/>
<path d="M125.0,160.0L220.0,165L320.0,160.0"/>
<path d="M125.0,150L320.0,150"/>
<path d="M145.0,140.0L310.0,140.0"/>
<path d="M150,130.0L220.0,130.0"/>
<path d="M135,120L275.0,120"/>
<path d="M145.0,100.0L220.0,110.0L275.0,100.0"/>
</g>
<g transform="matrix(0.3,0,0,-0.3,310,680)">
<path d="M0,0L0,500.0L500.0,500.0L500.0,0Z"/>
<path d="M170.0,110.0L230.0,170.0L350.0,170.0L350.0,160.0L290.0,100.0L170.0,100.0L170.0,110.0"/>
<path d="M170.0,110.0L290.0,110.0L350.0,170.0"/>
<path d="M190,100.0L190,110.0L250,170.0"/>
<path d="M210.0,100.0L210.0,110.0L270.0,170.0"/>
<path d="M230.0,100.0L230.0,110.0L290.0,170.0"/>
<path d="M250,100.0L250,110.0L310,170.0"/>
<path d="M270.0,100.0L270.0,110.0L330.0,170.0"/>
</g>
<g transform="matrix(0.3,0,0,-0.3,460,680)">
<path d="M0.0001,0L0.0001,500.0L500,500.0L500,0Z"/>
<path stroke="none" fill="rgb(0,0,0)" d="M170,110.0L230,170.0L350,170.0L350,160.0L290,100.0L170,100.0L170,110.0Z"/>
</g>
<g transform="matrix(0.3,0,0,-0.3,10,530)">
<path d="M0,0L0,500.0L500,500.0L500,0Z"/>
<path d="M170,100L165.0,120.0L167,120.0L170,110.0L170,130L172,128.0L170,100"/>
<path d="M200,100L200,120.0L190,130L190,140.0L190,130L200,140.0"/>
<path d="M200,110.0L230.0,130"/>
<path d="M230.0,100L240.0,120.0"/>
<path d="M250,100L250,120.0L270.0,130L255.0,120.0L250,130L260.0,140.0"/>
<path d="M270.0,100L280,130"/>
<path stroke="none" fill="rgb(0,0,0)" d="M310,100L310,120.0L300.0,120.0L300.0,100L310,100Z"/>
<path d="M310,115L320.0,115L330.0,125.0L330.0,130L310,150.0L300.0,150.0L290.0,140.0L285.0,120.0L290.0,115L300.0,115"/>
<path stroke="none" fill="rgb(0,0,0)" d="M310,125.0L310,130L320.0,130L310,125.0Z"/>
<path d="M345.0,100L345.0,120.0"/>
</g>
<g transform="matrix(0.3,0,0,-0.3,160,530)">
<path d="M0,0L0,500.0L500.0,500.0L500.0,0Z"/>
<path d="M170.0,100L325.0,100"/>
<path d="M185.0,100L175.0,160L180,160L190.0,100"/>
<path d="M170.0,160L165,155.0L160.0,165.0L160.0,175L165,180.0L175.0,190L185.0,190L185.0,185.0L195,175L195,150.0L185.0,160L175.0,160"/>
<path d="M185.0,125.0L190.0,125.0L190.0,130"/>
<path stroke="none" fill="rgb(0,0,0)" d="M215.0,100L210,110.0L215.0,145L215.0,110.0L220.0,100Z"/>
<path d="M215.0,110.0L225,120.0"/>
<path d="M245.0,100L245.0,120.0L240,130L250.0,140.0L250.0,150.0"/>
<path d="M240,130L235.0,135.0L235.0,145L230.0,150.0L230.0,165.0"/>
<path stroke="none" fill="rgb(0,0,0)" d="M265.0,100L260.0,105.0L260.0,120.0L265.0,140.0L260.0,160L265.0,160L275.0,135.0L270,135.0L265.0,120.0L265.0,105.0L270,100L265.0,100Z"/>
<path d="M255,165.0L255,160L250.0,170.0L250.0,160L240,160L245.0,165.0L245.0,175L250.0,185.0L255,185.0L255,195.0L265.0,195.0L265.0,185.0L270,190L280.0,190L280.0,185.0L285,180.0L285,175L295.0,175L295.0,165.0L285,155.0L280.0,165.0L260.0,165.0"/>
<path stroke="none" fill="rgb(0,0,0)" d="M305.0,100L305.0,115L310.0,125.0L310.0,130L302.0,135.0L300,155.0L305.0,140.0L315,135.0L320.0,150.0L320.0,165.0L315,185.0L320.0,185.0L325.0,165.0L325.0,150.0L310.0,115L310.0,100L310.0,100Z"/>
</g>
<g transform="matrix(0.3,0,0,-0.3,310,530)">
<path d="M0,0L0,500.0L500.0,500.0L500.0,0Z"/>
<path d="M150.0,110.0L150.0,120.0L220,150.0L280,150.0L350.0,120.0L350.0,120.0"/>
<path d="M220,150.0L220,140.0"/>
<path d="M280,150.0L280,140.0"/>
<path stroke="none" fill="rgb(0,0,0)" d="M150.0,100L200.0,100C200.0,111.046,208.954,120.0,220,120.0C231.046,120.0,240.0,111.046,240.0,100L260.0,100C260.0,111.046,268.954,120.0,280,120.0C291.046,120.0,300.0,111.046,300.0,100L350.0,100L350.0,110.0L280,140.0L220,140.0L150.0,110.0L150.0,100Z"/>
</g>
<g transform="matrix(0.3,0,0,-0.3,460,530)">
<path d="M0.0001,0L0.0001,500.0L500,500.0L500,0Z"/>
<path d="M150.0,110.0L150.0,120.0L220.0,150.0L280.0,150.0L350,120.0L350,120.0"/>
<path d="M220.0,150.0L220.0,140.0"/>
<path d="M280.0,150.0L280.0,140.0"/>
<path d="M150.0,100L200,100C200,111.046,208.954,120.0,220.0,120.0C231.046,120.0,240.0,111.046,240.0,100L260,100C260,111.046,268.954,120.0,280.0,120.0C291.046,120.0,300.0,111.046,300.0,100L350,100L350,110.0L280.0,140.0L220.0,140.0L150.0,110.0L150.0,100"/>
</g>
<g transform="matrix(0.3,0,0,-0.3,10,380)">
<path d="M0,0.0001L0,500L500,500L500,0.0001Z"/>
</g>
<g transform="matrix(0.75,0,0,-0.75,10,380)">
<g stroke="rgb(0,0,153)">
<path d="M40,57.9999L29.9999,56L20,48L17.9999,39.9999L17.9999,30L22,24L34,18"/>
<path d="M50,56L59.9999,51.9999L68,45.9999L71.9999,38L70,30L65.9999,21.9999L59.9999,15.9999L50,14"/>
<path d="M53.9999,50L40,51.9999L35.9999,51.9999L29.9999,45.9999L26,42L26,36L29.9999,30L35.9999,26L40,26"/>
<path d="M56,45.9999L59.9999,42L62,36L62,27.9999L58,21.9999L53.9999,20L46,20"/>
<path d="M44,45.9999L40,45.9999L35.9999,44L34,39.9999L34,36L38,32L41.9999,30L46,30L50,32L52,36L52,38"/>
<path d="M46,42L50,42L53.9999,39.9999L56,36L56,32L53.9999,27.9999L47.9999,26"/>
</g>
</g>
<g transform="matrix(0.3,0,0,-0.3,160,380)">
<path d="M0,0.0001L0,500L500.0,500L500.0,0.0001Z"/>
<path d="M160.0,99.9999L340.0,99.9999L340.0,120.0L310.0,140L320.0,130.0L290.0,130.0L290.0,135.0L305.0,135.0L305.0,145.0L290.0,145.0L290.0,150.0L310.0,150.0L330,130.0"/>
<path d="M290.0,130.0L270,130.0L270,120.0L260.0,120.0L260.0,110L250.0,110L250.0,120.0L240,120.0L250.0,115.0L240,115.0L240,120.0L245.0,115.0L230.0,115.0L230.0,120.0L225,120.0L225,130.0L235.0,130.0L230.0,135.0L225,135.0L225,150.0L220.0,150.0L220.0,99.9999L220.0,120.0L210,120.0L210,130.0L200.0,130.0L200.0,99.9999L195,99.9999L195,130.0L195,120.0L210,120.0L190.0,120.0L185.0,115.0L180,120.0L180,110L175.0,110L175.0,130.0L170.0,130.0L170.0,99.9999L165,99.9999L170.0,120.0L160.0,110L160.0,99.9999"/>
</g>
<g transform="matrix(0.3,0,0,-0.3,310,380)">
<path d="M0,0.0001L0,500L500.0,500L500.0,0.0001Z"/>
<path d="M160,99.9999L340,99.9999"/>
<path stroke="none" fill="rgb(0,0,0)" d="M340,99.9999L340,120.0L320.0,140L300.0,150.0L300.0,145.0L310,140L320.0,130.0L320.0,99.9999L340,99.9999Z"/>
<path stroke="none" fill="rgb(0,0,0)" d="M190,140L160,110L160,99.9999L180.0,99.9999L180.0,120.0L190,130.0L200.0,130.0L200.0,135.0L195.0,135.0L195.0,140L190,140Z"/>
<path stroke="none" fill="rgb(0,0,0)" d="M210.0,130.0L220,120.0L220,99.9999L230.0,99.9999L230.0,135.0L235,145.0L220,145.0L220,140L215.0,140L215.0,135.0L210.0,135.0L210.0,130.0Z"/>
<path d="M240.0,99.9999L240.0,135.0"/>
<path d="M240.0,155L240.0,160.0"/>
<path d="M260.0,99.9999L260.0,160.0"/>
<path d="M240.0,99.9999L260.0,125L240.0,125L260.0,150.0L240.0,150.0"/>
<path d="M260.0,125L275.0,99.9999"/>
<path d="M305.0,99.9999L305.0,135.0"/>
<path d="M305.0,150.0L305.0,160.0"/>
<path d="M325,140L325,160.0"/>
<path d="M305.0,99.9999L315.0,110"/>
<path d="M315.0,125L305.0,125L310,130.0"/>
<path d="M325,150.0L305.0,150.0"/>
<path d="M285.0,99.9999L305.0,125"/>
</g>
<g transform="matrix(0.3,0,0,-0.3,460,380)">
<path d="M0.0001,0.0001L0.0001,500L500,500L500,0.0001Z"/>
<path d="M160.0,99.9999L340.0,99.9999"/>
<path stroke="none" fill="rgb(0,0,0)" d="M340.0,99.9999L340.0,120.0L320,140L280.0,160.0L230,160.0L190.0,140L160.0,110L160.0,99.9999L180.0,99.9999L180.0,120.0L190.0,130.0L210.0,130.0L220.0,120.0L220.0,99.9999L230,99.9999L230,140L240.0,150.0L280.0,150.0L310.0,140L320,130.0L320,99.9999L340.0,99.9999Z"/>
<path d="M185,115.0L215,115.0"/>
<path d="M235.0,120.0L315.0,120.0"/>
<path d="M240.0,105.0L240.0,140"/>
<path d="M250.0,105.0L250.0,140"/>
<path d="M260,105.0L260,140"/>
<path d="M270.0,105.0L270.0,140"/>
<path d="M280.0,105.0L280.0,140"/>
<path d="M290,105.0L290,140"/>
<path d="M300.0,105.0L300.0,135.0"/>
<path d="M310.0,105.0L310.0,130.0"/>
</g>
<g transform="matrix(0.3,0,0,-0.3,10,230)">
<path d="M0,0L0,500.0L500,500.0L500,0Z"/>
</g>
<g transform="matrix(1.5,0,0,-1.5,10,230)">
<path stroke="none" fill="rgb(0,0,0)" d="M14.9999,14L14.9999,11.9999L17,11.9999L17,14L14.9999,14Z"/>
<path stroke="none" fill="rgb(0,0,0)" d="M14.9999,11L14.9999,8L16,5L17,8.9999L17,11L14.9999,11Z"/>
<path stroke="none" fill="rgb(0,0,0)" d="M16,74.9999L14,71.9999L14.9999,70L17,70L17.9999,71.9999L16,74.9999Z"/>
<path stroke="none" fill="rgb(0,0,0)" d="M14.9999,68.9999L14.9999,68L5,68L5,65.9999L14.9999,65.9999L14.9999,14.9999L17,14.9999L17,65.9999L26.9999,65.9999L26.9999,68L17,68L17,68.9999L14.9999,68.9999Z"/>
<path stroke="none" fill="rgb(0,0,0)" d="M5.9999,65L5.9999,56.9999L5,55L2.9999,53L2,50.9999L7,50.9999L8,53L8,50.9999L19,50.9999L20,53L22,53L20.9999,50.9999L22,50.9999L25,55L26,58L26,65L17,65Z"/>
<path stroke="none" fill="rgb(0,0,0)" d="M35.9999,3.9999L35,5.9999L37,5.9999L35,8L35,14L35.9999,15.9999L38,17L40,17L41,14.9999L41,8L38.9999,5.9999L41,5.9999L40,3.9999L53,3.9999L52,5.9999L47.9999,8L47.9999,15.9999L47,17.9999L52,20.9999L53.9999,24.9999L56,35L58,36.9999L59.9999,38L61.9999,35.9999L62.9999,33.9999L64,35.9999L65.9999,36.9999L65,38L65,38.9999L67,41.9999L64,41L62.9999,41L62.9999,44L59.9999,41.9999L58,41.9999L53.9999,39.9999L49,29L47,26L44,23.9999L44.9999,26.9999L47,27.9999L47.9999,29.9999L46,29.9999L47,32L49,32.9999L50,35L47,35.9999L49,38.9999L47,39.9999L47,41L50.9999,41.9999L49,44L49,45.9999L50,48.9999L47,48.9999L46,50.9999L44,50L43,52L41.9999,50L40,50L38,47.9999L34,47L32.9999,47.9999L32,45.9999L31,47L29.9999,44.9999L29,44L29.9999,41.9999L32,41L38,41.9999L37,39.9999L32,38.9999L29.9999,38L29,38.9999L26,38.9999L20,38L17,38.9999L14.9999,38.9999L14,38.9999L13,38L13,35.9999L11.9999,35L11.9999,33.9999L13,32.9999L13,32L14,30.9999L14.9999,30.9999L17,30.9999L19,32.9999L26.9999,32.9999L29.9999,33.9999L32.9999,32.9999L32,32L32,29L32.9999,27.9999L35,24.9999L35,23L31,18.9999L29,14.9999L29,8.9999L25,6.9999L23,5L23,3.9999M41.9999,45.9999L38.9999,45.9999L41.9999,47.9999L41.9999,45.9999Z"/>
</g>
<g transform="matrix(0.3,0,0,-0.3,160,230)">
<path d="M0,0L0,500.0L500.0,500.0L500.0,0Z"/>
</g>
<g transform="matrix(1.5,0,0,-1.5,160,230)">
<path stroke="none" fill="rgb(0,0,0)" d="M9.9999,0L30,0L30,2L32,0L30,3.9999L30,5.9999L32,9.9999L39.9999,17.9999L45.9999,20L50,17.9999L56,3.9999L48,3.9999L45.9999,2L45.9999,0L63.9999,0L63.9999,2L66,0L63.9999,3.9999L62,8L56,17.9999L57.9999,20L57.9999,23.9999L74,39.9999L80,47.9999L81.9999,52L84,53.9999L87.9999,53.9999L90,52L90,50L94,50L94,53.9999L90,58L81.9999,58L78,53.9999L72,44L68,39.9999L63.9999,35.9999L60,33.9999L56,35.9999L56,47.9999L57.9999,50L60,56L60,59.9999L54,65.9999L54,70L50,76L39.9999,76L38,74L21.9999,74L20,70L21.9999,68L42,68L44,62L42,56L38,58L15.9999,59.9999L6,76L9.9999,76L-2,89.9999L-2,74L2,76L12,59.9999L9.9999,59.9999L12,56L14,56L24,39.9999L27.9999,41.9999L24,47.9999L21.9999,47.9999L21.9999,50L18,56L27.9999,53.9999L42,45.9999L42,26L30,17.9999L27.9999,17.9999L24,11.9999L24,9.9999L20,3.9999L12,3.9999L9.9999,2L9.9999,0Z"/>
</g>
</g>
</svg>
