<?xml version="1.0" standalone="no"?>

<!-- Translated from PostScript by ps2svg.ps. Ross Inglis. ringlis@ipv.com -->

<!DOCTYPE svg PUBLIC "-//W3C//DTD SVG 1.0//EN" "http://www.w3.org/TR/2001/REC-SVG-20010904/DTD/svg10.dtd">

<svg width="100%" viewBox="0 0 594 840" stroke="rgb(0,0,0)" fill="none">
<style type="text/css">text {font-family:Times-Roman;font-size:10;fill:black;stroke:none}</style>
<g stroke-miterlimit="10">
<g transform="matrix(0.3,0,0,-0.3,10,830)">
<path d="M0,0L0,500.0L500.0,500.0L500.0,0Z"/>
<g stroke="rgb(0,178,0)">
<path d="M175,100L325,100"/>
<path d="M250,100L180.0,160"/>
<path d="M250,100L320.0,130"/>
<path stroke="none" fill="rgb(127,229,102)" d="M320.0,180.0L310,180.0L290.0,190L290.0,200.0L310,210.0L325,190L325,180.0L310,180.0"/>
<path d="M320.0,180.0L310,180.0L290.0,190L290.0,200.0L310,210.0L325,190L325,180.0L310,180.0"/>
<path d="M250,100L250,230.0L320.0,180.0"/>
</g>
</g>
<g transform="matrix(0.3,0,0,-0.3,160,830)">
<path d="M0,0L0,500.0L500.0,500.0L500.0,0Z"/>
<path d="M125.0,100L165.0,100"/>
<path d="M145,100L205,180.0L285.0,180.0L365.0,100L345.0,100L285.0,180.0"/>
<path stroke="none" fill="rgb(229,153,153)" d="M245.0,185.0L274.927,182.907C274.975,183.604,275.0,184.302,275.0,185.0C275.0,201.568,261.568,215.0,245.0,215.0C228.431,215.0,215.0,201.568,215.0,185.0C215.0,184.127,215.038,183.255,215.114,182.385"/>
<path d="M245.0,185.0L274.927,182.907C274.975,183.604,275.0,184.302,275.0,185.0C275.0,201.568,261.568,215.0,245.0,215.0C228.431,215.0,215.0,201.568,215.0,185.0C215.0,184.127,215.038,183.255,215.114,182.385"/>
<path d="M245.0,185.0L270.0,185.0C270.0,197.132,261.289,207.514,249.341,209.62"/>
<path d="M375.0,100L325,100"/>
<path d="M235,180.0L205,100"/>
<path d="M255.0,180.0L275.0,100"/>
<path d="M235,180.0L195.0,100L205,100"/>
<path d="M210.0,100L270.0,100"/>
<path d="M213.0,120.0L267.0,120.0"/>
<path d="M220,140.0L260.0,140.0"/>
<path d="M230.0,160L255.0,160"/>
</g>
<g transform="matrix(0.3,0,0,-0.3,310,830)">
<path d="M0,0L0,500.0L500.0,500.0L500.0,0Z"/>
<g stroke="rgb(204,204,0)">
<path d="M180.0,100L180.0,180.0L180.0,150.0L170.0,170.0L160,170.0L160,160L180.0,150.0L190,170.0L190,160L180.0,150.0L180.0,130L170.0,150.0L160,150.0L160,140.0L180.0,130L190,150.0L200.0,150.0L180.0,130"/>
<path d="M250,100L250,200.0L250,180.0L240.0,200.0L230.0,200.0L230.0,190L250,180.0L250,170.0L260.0,190L270.0,190L270.0,180.0L250,170.0L250,160L240.0,180.0L230.0,180.0L230.0,170.0L250,160L250,150.0L260.0,170.0L270.0,170.0L270.0,160L250,150.0L250,150.0L240.0,160L230.0,160L230.0,150.0L250,140.0L250,120.0L240.0,140.0L230.0,140.0L230.0,130L250,120.0"/>
<path d="M320.0,100L320.0,170.0L320.0,150.0L310,170.0L300.0,170.0L300.0,160L320.0,150.0L320.0,140.0L330.0,160L340,160L340,150.0L320.0,140.0L320.0,130L310,150.0L300.0,150.0L300.0,140.0L320.0,130L320.0,120.0L330.0,140.0L340,140.0L340,130L320.0,120.0"/>
</g>
</g>
<g transform="matrix(0.3,0,0,-0.3,460,830)">
<path d="M0,0L0,500.0L500.0,500.0L500.0,0Z"/>
<path d="M120.0,100L200.0,200.0L225.0,155.0"/>
<path d="M200.0,115L300.0,250L400,120.0"/>
<path d="M300.0,250L250,144.0"/>
<path d="M300.0,250L270.0,160"/>
<path d="M300.0,250L275.0,175"/>
</g>
<g transform="matrix(0.3,0,0,-0.3,10,680)">
<path d="M0,0L0,500.0L500.0,500.0L500.0,0Z"/>
<path d="M120.0,100L200.0,200.0L225.0,155.0"/>
<path d="M200.0,195.0L200.0,165.0"/>
<path d="M200.0,115L275.0,220L325,230.0L400,120.0"/>
<path d="M285.0,220L250,144.0"/>
<path d="M295,220L270.0,160"/>
<path d="M300.0,230.0L275.0,175"/>
<path d="M310,230.0L300.0,200.0"/>
<path d="M320.0,230.0L340,180.0"/>
<path d="M315.0,250L250,250"/>
<path d="M230.0,250L130,250"/>
<path d="M285.0,235L85,235"/>
<path d="M275.0,223L120.0,223"/>
<path d="M270.0,210.0L240.0,210.0"/>
<path d="M220,210.0L100,210.0"/>
</g>
<g transform="matrix(0.3,0,0,-0.3,160,680)">
<path d="M0,0L0,500.0L500.0,500.0L500.0,0Z"/>
<path d="M125.0,160L220,165.0L320.0,160"/>
<path d="M125.0,150.0L320.0,150.0"/>
<path d="M145,140.0L310,140.0"/>
<path d="M150.0,130L220,130"/>
<path d="M135.0,120.0L275.0,120.0"/>
<path d="M145,100L220,110.0L275.0,100"/>
</g>
<g transform="matrix(0.3,0,0,-0.3,310,680)">
<path d="M0,0L0,500.0L500.0,500.0L500.0,0Z"/>
<path d="M170.0,110.0L230.0,170.0L350.0,170.0L350.0,160L290.0,100L170.0,100L170.0,110.0"/>
<path d="M170.0,110.0L290.0,110.0L350.0,170.0"/>
<path d="M190,100L190,110.0L250,170.0"/>
<path d="M210.0,100L210.0,110.0L270.0,170.0"/>
<path d="M230.0,100L230.0,110.0L290.0,170.0"/>
<path d="M250,100L250,110.0L310,170.0"/>
<path d="M270.0,100L270.0,110.0L330.0,170.0"/>
</g>
<g transform="matrix(0.3,0,0,-0.3,460,680)">
<path d="M0,0L0,500.0L500.0,500.0L500.0,0Z"/>
<path stroke="none" fill="rgb(0,0,0)" d="M170.0,110.0L230.0,170.0L350.0,170.0L350.0,160L290.0,100L170.0,100L170.0,110.0Z"/>
</g>
<g transform="matrix(0.3,0,0,-0.3,10,530)">
<path d="M0,0L0,500.0L500.0,500.0L500.0,0Z"/>
<path d="M170.0,100L165.0,120.0L167.0,120.0L170.0,110.0L170.0,130L172,128.0L170.0,100"/>
<path d="M200.0,100L200.0,120.0L190,130L190,140.0L190,130L200.0,140.0"/>
<path d="M200.0,110.0L230.0,130"/>
<path d="M230.0,100L240.0,120.0"/>
<path d="M250,100L250,120.0L270.0,130L255.0,120.0L250,130L260.0,140.0"/>
<path d="M270.0,100L280,130"/>
<path stroke="none" fill="rgb(0,0,0)" d="M310,100L310,120.0L300.0,120.0L300.0,100L310,100Z"/>
<path d="M310,115L320.0,115L330.0,125.0L330.0,130L310,150.0L300.0,150.0L290.0,140.0L285.0,120.0L290.0,115L300.0,115"/>
<path stroke="none" fill="rgb(0,0,0)" d="M310,125.0L310,130L320.0,130L310,125.0Z"/>
<path d="M345.0,100L345.0,120.0"/>
</g>
<g transform="matrix(0.3,0,0,-0.3,160,530)">
<path d="M0,0L0,500.0L500.0,500.0L500.0,0Z"/>
<path d="M170.0,100L325,100"/>
<path d="M185.0,100L175,160L180.0,160L190,100"/>
<path d="M170.0,160L165.0,155.0L160,165.0L160,175L165.0,180.0L175,190L185.0,190L185.0,185.0L195.0,175L195.0,150.0L185.0,160L175,160"/>
<path d="M185.0,125.0L190,125.0L190,130"/>
<path stroke="none" fill="rgb(0,0,0)" d="M215.0,100L210.0,110.0L215.0,145L215.0,110.0L220,100Z"/>
<path d="M215.0,110.0L225.0,120.0"/>
<path d="M245.0,100L245.0,120.0L240.0,130L250,140.0L250,150.0"/>
<path d="M240.0,130L235,135.0L235,145L230.0,150.0L230.0,165.0"/>
<path stroke="none" fill="rgb(0,0,0)" d="M265,100L260.0,105.0L260.0,120.0L265,140.0L260.0,160L265,160L275.0,135.0L270.0,135.0L265,120.0L265,105.0L270.0,100L265,100Z"/>
<path d="M255.0,165.0L255.0,160L250,170.0L250,160L240.0,160L245.0,165.0L245.0,175L250,185.0L255.0,185.0L255.0,195.0L265,195.0L265,185.0L270.0,190L280,190L280,185.0L285.0,180.0L285.0,175L295,175L295,165.0L285.0,155.0L280,165.0L260.0,165.0"/>
<path stroke="none" fill="rgb(0,0,0)" d="M305.0,100L305.0,115L310,125.0L310,130L302.0,135.0L300.0,155.0L305.0,140.0L315.0,135.0L320.0,150.0L320.0,165.0L315.0,185.0L320.0,185.0L325,165.0L325,150.0L310,115L310,100L310,100Z"/>
</g>
<g transform="matrix(0.3,0,0,-0.3,310,530)">
<path d="M0,0L0,500.0L500.0,500.0L500.0,0Z"/>
<path d="M150.0,110.0L150.0,120.0L220,150.0L280,150.0L350.0,120.0L350.0,120.0"/>
<path d="M220,150.0L220,140.0"/>
<path d="M280,150.0L280,140.0"/>
<path stroke="none" fill="rgb(0,0,0)" d="M150.0,100L200.0,100C200.0,111.046,208.954,120.0,220,120.0C231.046,120.0,240.0,111.046,240.0,100L260.0,100C260.0,111.046,268.954,120.0,280,120.0C291.046,120.0,300.0,111.046,300.0,100L350.0,100L350.0,110.0L280,140.0L220,140.0L150.0,110.0L150.0,100Z"/>
</g>
<g transform="matrix(0.3,0,0,-0.3,460,530)">
<path d="M0,0L0,500.0L500.0,500.0L500.0,0Z"/>
<path d="M150.0,110.0L150.0,120.0L220,150.0L280,150.0L350.0,120.0L350.0,120.0"/>
<path d="M220,150.0L220,140.0"/>
<path d="M280,150.0L280,140.0"/>
<path d="M150.0,100L200.0,100C200.0,111.046,208.954,120.0,220,120.0C231.046,120.0,240.0,111.046,240.0,100L260.0,100C260.0,111.046,268.954,120.0,280,120.0C291.046,120.0,300.0,111.046,300.0,100L350.0,100L350.0,110.0L280,140.0L220,140.0L150.0,110.0L150.0,100"/>
</g>
<g transform="matrix(0.3,0,0,-0.3,10,380)">
<path d="M0,0L0,500.0L500.0,500.0L500.0,0Z"/>
</g>
<g transform="matrix(0.75,0,0,-0.75,10,380)">
<g stroke="rgb(0,0,153)">
<path d="M40,58L29.9999,55.9999L19.9999,47.9999L17.9999,40L17.9999,29.9999L22,23.9999L34,17.9999"/>
<path d="M49.9999,55.9999L59.9999,52L67.9999,46L71.9999,37.9999L70,29.9999L65.9999,22L59.9999,16L49.9999,13.9999"/>
<path d="M53.9999,49.9999L40,52L35.9999,52L29.9999,46L25.9999,41.9999L25.9999,35.9999L29.9999,29.9999L35.9999,25.9999L40,25.9999"/>
<path d="M55.9999,46L59.9999,41.9999L61.9999,35.9999L61.9999,28L58,22L53.9999,19.9999L46,19.9999"/>
<path d="M43.9999,46L40,46L35.9999,43.9999L34,40L34,35.9999L37.9999,31.9999L41.9999,29.9999L46,29.9999L49.9999,31.9999L52,35.9999L52,37.9999"/>
<path d="M46,41.9999L49.9999,41.9999L53.9999,40L55.9999,35.9999L55.9999,31.9999L53.9999,28L47.9999,25.9999"/>
</g>
</g>
<g transform="matrix(0.3,0,0,-0.3,160,380)">
<path d="M0,0L0,500.0L500.0,500.0L500.0,0Z"/>
<path d="M160,100L340,100L340,120.0L310,140.0L320.0,130L290.0,130L290.0,135.0L305.0,135.0L305.0,145L290.0,145L290.0,150.0L310,150.0L330.0,130"/>
<path d="M290.0,130L270.0,130L270.0,120.0L260.0,120.0L260.0,110.0L250,110.0L250,120.0L240.0,120.0L250,115L240.0,115L240.0,120.0L245.0,115L230.0,115L230.0,120.0L225.0,120.0L225.0,130L235,130L230.0,135.0L225.0,135.0L225.0,150.0L220,150.0L220,100L220,120.0L210.0,120.0L210.0,130L200.0,130L200.0,100L195.0,100L195.0,130L195.0,120.0L210.0,120.0L190,120.0L185.0,115L180.0,120.0L180.0,110.0L175,110.0L175,130L170.0,130L170.0,100L165.0,100L170.0,120.0L160,110.0L160,100"/>
</g>
<g transform="matrix(0.3,0,0,-0.3,310,380)">
<path d="M0,0L0,500.0L500.0,500.0L500.0,0Z"/>
<path d="M160,100L340,100"/>
<path stroke="none" fill="rgb(0,0,0)" d="M340,100L340,120.0L320.0,140.0L300.0,150.0L300.0,145L310,140.0L320.0,130L320.0,100L340,100Z"/>
<path stroke="none" fill="rgb(0,0,0)" d="M190,140.0L160,110.0L160,100L180.0,100L180.0,120.0L190,130L200.0,130L200.0,135.0L195.0,135.0L195.0,140.0L190,140.0Z"/>
<path stroke="none" fill="rgb(0,0,0)" d="M210.0,130L220,120.0L220,100L230.0,100L230.0,135.0L235,145L220,145L220,140.0L215.0,140.0L215.0,135.0L210.0,135.0L210.0,130Z"/>
<path d="M240.0,100L240.0,135.0"/>
<path d="M240.0,155.0L240.0,160"/>
<path d="M260.0,100L260.0,160"/>
<path d="M240.0,100L260.0,125.0L240.0,125.0L260.0,150.0L240.0,150.0"/>
<path d="M260.0,125.0L275.0,100"/>
<path d="M305.0,100L305.0,135.0"/>
<path d="M305.0,150.0L305.0,160"/>
<path d="M325,140.0L325,160"/>
<path d="M305.0,100L315.0,110.0"/>
<path d="M315.0,125.0L305.0,125.0L310,130"/>
<path d="M325,150.0L305.0,150.0"/>
<path d="M285.0,100L305.0,125.0"/>
</g>
<g transform="matrix(0.3,0,0,-0.3,460,380)">
<path d="M0,0L0,500.0L500.0,500.0L500.0,0Z"/>
<path d="M160,100L340,100"/>
<path stroke="none" fill="rgb(0,0,0)" d="M340,100L340,120.0L320.0,140.0L280,160L230.0,160L190,140.0L160,110.0L160,100L180.0,100L180.0,120.0L190,130L210.0,130L220,120.0L220,100L230.0,100L230.0,140.0L240.0,150.0L280,150.0L310,140.0L320.0,130L320.0,100L340,100Z"/>
<path d="M185.0,115L215.0,115"/>
<path d="M235,120.0L315.0,120.0"/>
<path d="M240.0,105.0L240.0,140.0"/>
<path d="M250,105.0L250,140.0"/>
<path d="M260.0,105.0L260.0,140.0"/>
<path d="M270.0,105.0L270.0,140.0"/>
<path d="M280,105.0L280,140.0"/>
<path d="M290.0,105.0L290.0,140.0"/>
<path d="M300.0,105.0L300.0,135.0"/>
<path d="M310,105.0L310,130"/>
</g>
<g transform="matrix(0.3,0,0,-0.3,10,230)">
<path d="M0,0L0,500.0L500.0,500.0L500.0,0Z"/>
</g>
<g transform="matrix(1.5,0,0,-1.5,10,230)">
<path stroke="none" fill="rgb(0,0,0)" d="M14.9999,14L14.9999,11.9999L17,11.9999L17,14L14.9999,14Z"/>
<path stroke="none" fill="rgb(0,0,0)" d="M14.9999,11L14.9999,8L15.9999,5L17,8.9999L17,11L14.9999,11Z"/>
<path stroke="none" fill="rgb(0,0,0)" d="M15.9999,74.9999L14,71.9999L14.9999,70L17,70L17.9999,71.9999L15.9999,74.9999Z"/>
<path stroke="none" fill="rgb(0,0,0)" d="M14.9999,68.9999L14.9999,68L5,68L5,65.9999L14.9999,65.9999L14.9999,14.9999L17,14.9999L17,65.9999L26.9999,65.9999L26.9999,68L17,68L17,68.9999L14.9999,68.9999Z"/>
<path stroke="none" fill="rgb(0,0,0)" d="M5.9999,65L5.9999,56.9999L5,54.9999L2.9999,53L2,50.9999L6.9999,50.9999L8,53L8,50.9999L18.9999,50.9999L20,53L21.9999,53L20.9999,50.9999L21.9999,50.9999L24.9999,54.9999L26,57.9999L26,65L17,65Z"/>
<path stroke="none" fill="rgb(0,0,0)" d="M35.9999,3.9999L35,5.9999L36.9999,5.9999L35,8L35,14L35.9999,15.9999L38,17L39.9999,17L41,14.9999L41,8L38.9999,5.9999L41,5.9999L39.9999,3.9999L53,3.9999L51.9999,5.9999L47.9999,8L47.9999,15.9999L47,17.9999L51.9999,20.9999L53.9999,24.9999L56,35L57.9999,36.9999L59.9999,38L62,35.9999L62.9999,33.9999L64,35.9999L65.9999,36.9999L65,38L65,38.9999L67,41.9999L64,41L62.9999,41L62.9999,44L59.9999,41.9999L57.9999,41.9999L53.9999,39.9999L48.9999,29L47,26L44,23.9999L44.9999,26.9999L47,27.9999L47.9999,29.9999L45.9999,29.9999L47,32L48.9999,32.9999L50,35L47,35.9999L48.9999,38.9999L47,39.9999L47,41L50.9999,41.9999L48.9999,44L48.9999,45.9999L50,48.9999L47,48.9999L45.9999,50.9999L44,50L42.9999,51.9999L41.9999,50L39.9999,50L38,47.9999L33.9999,47L32.9999,47.9999L32,45.9999L30.9999,47L29.9999,44.9999L29,44L29.9999,41.9999L32,41L38,41.9999L36.9999,39.9999L32,38.9999L29.9999,38L29,38.9999L26,38.9999L20,38L17,38.9999L14.9999,38.9999L14,38.9999L12.9999,38L12.9999,35.9999L11.9999,35L11.9999,33.9999L12.9999,32.9999L12.9999,32L14,30.9999L14.9999,30.9999L17,30.9999L18.9999,32.9999L26.9999,32.9999L29.9999,33.9999L32.9999,32.9999L32,32L32,29L32.9999,27.9999L35,24.9999L35,23L30.9999,18.9999L29,14.9999L29,8.9999L24.9999,6.9999L23,5L23,3.9999M41.9999,45.9999L38.9999,45.9999L41.9999,47.9999L41.9999,45.9999Z"/>
</g>
<g transform="matrix(0.3,0,0,-0.3,160,230)">
<path d="M0,0L0,500.0L500.0,500.0L500.0,0Z"/>
</g>
<g transform="matrix(1.5,0,0,-1.5,160,230)">
<path stroke="none" fill="rgb(0,0,0)" d="M9.9999,0L29.9999,0L29.9999,2L32,0L29.9999,3.9999L29.9999,5.9999L32,9.9999L39.9999,17.9999L45.9999,20L50,17.9999L56,3.9999L47.9999,3.9999L45.9999,2L45.9999,0L64,0L64,2L65.9999,0L64,3.9999L62,8L56,17.9999L57.9999,20L57.9999,23.9999L74,39.9999L80,47.9999L82,51.9999L83.9999,53.9999L88,53.9999L89.9999,51.9999L89.9999,50L94,50L94,53.9999L89.9999,57.9999L82,57.9999L77.9999,53.9999L71.9999,44L68,39.9999L64,35.9999L59.9999,33.9999L56,35.9999L56,47.9999L57.9999,50L59.9999,56L59.9999,59.9999L53.9999,65.9999L53.9999,70L50,76L39.9999,76L38,74L21.9999,74L20,70L21.9999,68L41.9999,68L44,62L41.9999,56L38,57.9999L15.9999,59.9999L5.9999,76L9.9999,76L-2,89.9999L-2,74L2,76L11.9999,59.9999L9.9999,59.9999L11.9999,56L14,56L23.9999,39.9999L27.9999,41.9999L23.9999,47.9999L21.9999,47.9999L21.9999,50L17.9999,56L27.9999,53.9999L41.9999,45.9999L41.9999,26L29.9999,17.9999L27.9999,17.9999L23.9999,11.9999L23.9999,9.9999L20,3.9999L11.9999,3.9999L9.9999,2L9.9999,0Z"/>
</g>
</g>
</svg>
