<?xml version="1.0" encoding="UTF-8" standalone="no"?>
<svg
   xmlns:dc="http://purl.org/dc/elements/1.1/"
   xmlns:cc="http://web.resource.org/cc/"
   xmlns:rdf="http://www.w3.org/1999/02/22-rdf-syntax-ns#"
   xmlns:svg="http://www.w3.org/2000/svg"
   xmlns="http://www.w3.org/2000/svg"
   xmlns:sodipodi="http://sodipodi.sourceforge.net/DTD/sodipodi-0.dtd"
   xmlns:inkscape="http://www.inkscape.org/namespaces/inkscape"
   width="1200pt"
   height="800pt"
   viewBox="0 0 1200 800"
   version="1.1"
   id="svg2"
   sodipodi:version="0.32"
   inkscape:version="0.45.1"
   sodipodi:docname="symbols.svg"
   inkscape:output_extension="org.inkscape.output.svg.inkscape"
   sodipodi:docbase="/home/ralexand/source/lizards/cxx/symbols">
  <metadata
     id="metadata430">
    <rdf:RDF>
      <cc:Work
         rdf:about="">
        <dc:format>image/svg+xml</dc:format>
        <dc:type
           rdf:resource="http://purl.org/dc/dcmitype/StillImage" />
      </cc:Work>
    </rdf:RDF>
  </metadata>
  <defs
     id="defs428" />
  <sodipodi:namedview
     inkscape:cy="417.849475"
     inkscape:cx="305.259528"
     inkscape:zoom="0.43415836"
     inkscape:window-height="480"
     inkscape:window-width="640"
     inkscape:pageshadow="2"
     inkscape:pageopacity="0.0"
     guidetolerance="10.0"
     gridtolerance="10.0"
     objecttolerance="10.0"
     borderopacity="1.0"
     bordercolor="#666666"
     pagecolor="#ffffff"
     id="base" />
  <path
     id="path5"
     d="M 0,0 L 200,0 L 200,200 L 0,200 L 0,0 z "
     style="fill:none;stroke:#000000;stroke-width:0.40000001;stroke-linecap:square;stroke-linejoin:miter;stroke-miterlimit:10;stroke-opacity:1" />
  <path
     id="path7"
     d="M 100,200 L 200,200 L 200,100"
     style="fill:#b3b3ff;fill-opacity:1;fill-rule:nonzero;stroke:none" />
  <path
     id="path9"
     d="M 100,200 L 0,200 L 0,100"
     style="fill:#b3ffff;fill-opacity:1;fill-rule:nonzero;stroke:none" />
  <g
     id="g2793">
    <path
       style="fill:none;stroke:#00b300;stroke-width:0.40000001;stroke-linecap:square;stroke-linejoin:miter;stroke-miterlimit:10;stroke-opacity:1"
       d="M 70,200 L 130,200"
       id="path11" />
    <path
       style="fill:none;stroke:#00b300;stroke-width:0.40000001;stroke-linecap:square;stroke-linejoin:miter;stroke-miterlimit:10;stroke-opacity:1"
       d="M 100,200 L 72,176"
       id="path13" />
    <path
       style="fill:none;stroke:#00b300;stroke-width:0.40000001;stroke-linecap:square;stroke-linejoin:miter;stroke-miterlimit:10;stroke-opacity:1"
       d="M 100,200 L 128,188"
       id="path15" />
    <path
       style="fill:#7fe666;fill-opacity:1;fill-rule:nonzero;stroke:#00b300;stroke-width:0.40000001;stroke-linecap:square;stroke-linejoin:miter;stroke-miterlimit:10;stroke-opacity:1"
       d="M 128,168 L 124,168 L 116,164 L 116,160 L 124,156 L 130,164 L 130,168 L 124,168"
       id="path17" />
    <path
       style="fill:none;stroke:#00b300;stroke-width:0.40000001;stroke-linecap:square;stroke-linejoin:miter;stroke-miterlimit:10;stroke-opacity:1"
       d="M 100,200 L 100,148 L 128,168"
       id="path19" />
  </g>
  <path
     id="path21"
     d="M 200,0 L 400,0 L 400,200 L 200,200 L 200,0 z "
     style="fill:none;stroke:#000000;stroke-width:0.40000001;stroke-linecap:square;stroke-linejoin:miter;stroke-miterlimit:10;stroke-opacity:1" />
  <path
     id="path23"
     d="M 300,200 L 400,200 L 400,100"
     style="fill:#b3b3ff;fill-opacity:1;fill-rule:nonzero;stroke:none" />
  <path
     id="path25"
     d="M 300,200 L 200,200 L 200,100"
     style="fill:#b3ffff;fill-opacity:1;fill-rule:nonzero;stroke:none" />
  <path
     id="path27"
     d="M 250,200 L 266,200"
     style="fill:none;stroke:#000000;stroke-width:0.40000001;stroke-linecap:square;stroke-linejoin:miter;stroke-miterlimit:10;stroke-opacity:1" />
  <path
     id="path29"
     d="M 258,200 L 282,168 L 314,168 L 346,200 L 338,200 L 314,168"
     style="fill:none;stroke:#000000;stroke-width:0.40000001;stroke-linecap:square;stroke-linejoin:miter;stroke-miterlimit:10;stroke-opacity:1" />
  <path
     id="path31"
     d="M 298,166 L 309.97266,166.83594 C 310.20312,163.5 309.03516,160.21484 306.74219,157.77734 C 304.44922,155.33984 301.24219,153.97266 297.89453,154 C 294.55078,154.03125 291.36719,155.45312 289.11719,157.92969 C 286.86719,160.41016 285.75391,163.71094 286.04688,167.04688"
     style="fill:#e69999;fill-opacity:1;fill-rule:nonzero;stroke:none" />
  <path
     id="path33"
     d=""
     style="fill:none;stroke:#000000;stroke-width:0.40000001;stroke-linecap:square;stroke-linejoin:miter;stroke-miterlimit:10;stroke-opacity:1" />
  <path
     id="path35"
     d="M 298,166 L 308,166 C 308,161.14844 304.51562,156.99609 299.73828,156.15234"
     style="fill:none;stroke:#000000;stroke-width:0.40000001;stroke-linecap:square;stroke-linejoin:miter;stroke-miterlimit:10;stroke-opacity:1" />
  <path
     id="path37"
     d="M 350,200 L 330,200"
     style="fill:none;stroke:#000000;stroke-width:0.40000001;stroke-linecap:square;stroke-linejoin:miter;stroke-miterlimit:10;stroke-opacity:1" />
  <path
     id="path39"
     d="M 294,168 L 282,200"
     style="fill:none;stroke:#000000;stroke-width:0.40000001;stroke-linecap:square;stroke-linejoin:miter;stroke-miterlimit:10;stroke-opacity:1" />
  <path
     id="path41"
     d="M 302,168 L 310,200"
     style="fill:none;stroke:#000000;stroke-width:0.40000001;stroke-linecap:square;stroke-linejoin:miter;stroke-miterlimit:10;stroke-opacity:1" />
  <path
     id="path43"
     d="M 294,168 L 278,200 L 282,200"
     style="fill:none;stroke:#000000;stroke-width:0.40000001;stroke-linecap:square;stroke-linejoin:miter;stroke-miterlimit:10;stroke-opacity:1" />
  <path
     id="path45"
     d="M 284,200 L 308,200"
     style="fill:none;stroke:#000000;stroke-width:0.40000001;stroke-linecap:square;stroke-linejoin:miter;stroke-miterlimit:10;stroke-opacity:1" />
  <path
     id="path47"
     d="M 285.19922,192 L 306.80078,192"
     style="fill:none;stroke:#000000;stroke-width:0.40000001;stroke-linecap:square;stroke-linejoin:miter;stroke-miterlimit:10;stroke-opacity:1" />
  <path
     id="path49"
     d="M 288,184 L 304,184"
     style="fill:none;stroke:#000000;stroke-width:0.40000001;stroke-linecap:square;stroke-linejoin:miter;stroke-miterlimit:10;stroke-opacity:1" />
  <path
     id="path51"
     d="M 292,176 L 302,176"
     style="fill:none;stroke:#000000;stroke-width:0.40000001;stroke-linecap:square;stroke-linejoin:miter;stroke-miterlimit:10;stroke-opacity:1" />
  <path
     id="path53"
     d="M 400,0 L 600,0 L 600,200 L 400,200 L 400,0 z "
     style="fill:none;stroke:#000000;stroke-width:0.40000001;stroke-linecap:square;stroke-linejoin:miter;stroke-miterlimit:10;stroke-opacity:1" />
  <path
     id="path55"
     d="M 500,200 L 600,200 L 600,100"
     style="fill:#b3b3ff;fill-opacity:1;fill-rule:nonzero;stroke:none" />
  <path
     id="path57"
     d="M 500,200 L 400,200 L 400,100"
     style="fill:#b3ffff;fill-opacity:1;fill-rule:nonzero;stroke:none" />
  <path
     id="path59"
     d="M 472,200 L 472,168 L 472,180 L 468,172 L 464,172 L 464,176 L 472,180 L 476,172 L 476,176 L 472,180 L 472,188 L 468,180 L 464,180 L 464,184 L 472,188 L 476,180 L 480,180 L 472,188"
     style="fill:none;stroke:#cccc00;stroke-width:0.40000001;stroke-linecap:square;stroke-linejoin:miter;stroke-miterlimit:10;stroke-opacity:1" />
  <path
     id="path61"
     d="M 500,200 L 500,160 L 500,168 L 496,160 L 492,160 L 492,164 L 500,168 L 500,172 L 504,164 L 508,164 L 508,168 L 500,172 L 500,176 L 496,168 L 492,168 L 492,172 L 500,176 L 500,180 L 504,172 L 508,172 L 508,176 L 500,180 L 500,180 L 496,176 L 492,176 L 492,180 L 500,184 L 500,192 L 496,184 L 492,184 L 492,188 L 500,192"
     style="fill:none;stroke:#cccc00;stroke-width:0.40000001;stroke-linecap:square;stroke-linejoin:miter;stroke-miterlimit:10;stroke-opacity:1" />
  <path
     id="path63"
     d="M 528,200 L 528,172 L 528,180 L 524,172 L 520,172 L 520,176 L 528,180 L 528,184 L 532,176 L 536,176 L 536,180 L 528,184 L 528,188 L 524,180 L 520,180 L 520,184 L 528,188 L 528,192 L 532,184 L 536,184 L 536,188 L 528,192"
     style="fill:none;stroke:#cccc00;stroke-width:0.40000001;stroke-linecap:square;stroke-linejoin:miter;stroke-miterlimit:10;stroke-opacity:1" />
  <path
     id="path65"
     d="M 600,0 L 800,0 L 800,200 L 600,200 L 600,0 z "
     style="fill:none;stroke:#000000;stroke-width:0.40000001;stroke-linecap:square;stroke-linejoin:miter;stroke-miterlimit:10;stroke-opacity:1" />
  <path
     id="path67"
     d="M 700,200 L 800,200 L 800,100"
     style="fill:#b3b3ff;fill-opacity:1;fill-rule:nonzero;stroke:none" />
  <path
     id="path69"
     d="M 700,200 L 600,200 L 600,100"
     style="fill:#b3ffff;fill-opacity:1;fill-rule:nonzero;stroke:none" />
  <path
     id="path71"
     d="M 648,200 L 680,160 L 690,178"
     style="fill:none;stroke:#000000;stroke-width:0.40000001;stroke-linecap:square;stroke-linejoin:miter;stroke-miterlimit:10;stroke-opacity:1" />
  <path
     id="path73"
     d="M 680,194 L 720,140 L 760,192"
     style="fill:none;stroke:#000000;stroke-width:0.40000001;stroke-linecap:square;stroke-linejoin:miter;stroke-miterlimit:10;stroke-opacity:1" />
  <path
     id="path75"
     d="M 720,140 L 700,182.39844"
     style="fill:none;stroke:#000000;stroke-width:0.40000001;stroke-linecap:square;stroke-linejoin:miter;stroke-miterlimit:10;stroke-opacity:1" />
  <path
     id="path77"
     d="M 720,140 L 708,176"
     style="fill:none;stroke:#000000;stroke-width:0.40000001;stroke-linecap:square;stroke-linejoin:miter;stroke-miterlimit:10;stroke-opacity:1" />
  <path
     id="path79"
     d="M 720,140 L 710,170"
     style="fill:none;stroke:#000000;stroke-width:0.40000001;stroke-linecap:square;stroke-linejoin:miter;stroke-miterlimit:10;stroke-opacity:1" />
  <path
     id="path81"
     d="M 800,0 L 1000,0 L 1000,200 L 800,200 L 800,0 z "
     style="fill:none;stroke:#000000;stroke-width:0.40000001;stroke-linecap:square;stroke-linejoin:miter;stroke-miterlimit:10;stroke-opacity:1" />
  <path
     id="path83"
     d="M 900,200 L 1000,200 L 1000,100"
     style="fill:#b3b3ff;fill-opacity:1;fill-rule:nonzero;stroke:none" />
  <path
     id="path85"
     d="M 900,200 L 800,200 L 800,100"
     style="fill:#b3ffff;fill-opacity:1;fill-rule:nonzero;stroke:none" />
  <path
     id="path87"
     d="M 848,200 L 880,160 L 890,178"
     style="fill:none;stroke:#000000;stroke-width:0.40000001;stroke-linecap:square;stroke-linejoin:miter;stroke-miterlimit:10;stroke-opacity:1" />
  <path
     id="path89"
     d="M 880,162 L 880,174"
     style="fill:none;stroke:#000000;stroke-width:0.40000001;stroke-linecap:square;stroke-linejoin:miter;stroke-miterlimit:10;stroke-opacity:1" />
  <path
     id="path91"
     d="M 880,194 L 910,152 L 930,148 L 960,192"
     style="fill:none;stroke:#000000;stroke-width:0.40000001;stroke-linecap:square;stroke-linejoin:miter;stroke-miterlimit:10;stroke-opacity:1" />
  <path
     id="path93"
     d="M 914,152 L 900,182.39844"
     style="fill:none;stroke:#000000;stroke-width:0.40000001;stroke-linecap:square;stroke-linejoin:miter;stroke-miterlimit:10;stroke-opacity:1" />
  <path
     id="path95"
     d="M 918,152 L 908,176"
     style="fill:none;stroke:#000000;stroke-width:0.40000001;stroke-linecap:square;stroke-linejoin:miter;stroke-miterlimit:10;stroke-opacity:1" />
  <path
     id="path97"
     d="M 920,148 L 910,170"
     style="fill:none;stroke:#000000;stroke-width:0.40000001;stroke-linecap:square;stroke-linejoin:miter;stroke-miterlimit:10;stroke-opacity:1" />
  <path
     id="path99"
     d="M 924,148 L 920,160"
     style="fill:none;stroke:#000000;stroke-width:0.40000001;stroke-linecap:square;stroke-linejoin:miter;stroke-miterlimit:10;stroke-opacity:1" />
  <path
     id="path101"
     d="M 928,148 L 936,168"
     style="fill:none;stroke:#000000;stroke-width:0.40000001;stroke-linecap:square;stroke-linejoin:miter;stroke-miterlimit:10;stroke-opacity:1" />
  <path
     id="path103"
     d="M 926,140 L 900,140"
     style="fill:none;stroke:#000000;stroke-width:0.40000001;stroke-linecap:square;stroke-linejoin:miter;stroke-miterlimit:10;stroke-opacity:1" />
  <path
     id="path105"
     d="M 892,140 L 852,140"
     style="fill:none;stroke:#000000;stroke-width:0.40000001;stroke-linecap:square;stroke-linejoin:miter;stroke-miterlimit:10;stroke-opacity:1" />
  <path
     id="path107"
     d="M 914,146 L 834,146"
     style="fill:none;stroke:#000000;stroke-width:0.40000001;stroke-linecap:square;stroke-linejoin:miter;stroke-miterlimit:10;stroke-opacity:1" />
  <path
     id="path109"
     d="M 910,150.80078 L 848,150.80078"
     style="fill:none;stroke:#000000;stroke-width:0.40000001;stroke-linecap:square;stroke-linejoin:miter;stroke-miterlimit:10;stroke-opacity:1" />
  <path
     id="path111"
     d="M 908,156 L 896,156"
     style="fill:none;stroke:#000000;stroke-width:0.40000001;stroke-linecap:square;stroke-linejoin:miter;stroke-miterlimit:10;stroke-opacity:1" />
  <path
     id="path113"
     d="M 888,156 L 840,156"
     style="fill:none;stroke:#000000;stroke-width:0.40000001;stroke-linecap:square;stroke-linejoin:miter;stroke-miterlimit:10;stroke-opacity:1" />
  <path
     id="path115"
     d="M 1000,0 L 1200,0 L 1200,200 L 1000,200 L 1000,0 z "
     style="fill:none;stroke:#000000;stroke-width:0.40000001;stroke-linecap:square;stroke-linejoin:miter;stroke-miterlimit:10;stroke-opacity:1" />
  <path
     id="path117"
     d="M 1100,200 L 1200,200 L 1200,100"
     style="fill:#b3b3ff;fill-opacity:1;fill-rule:nonzero;stroke:none" />
  <path
     id="path119"
     d="M 1100,200 L 1000,200 L 1000,100"
     style="fill:#b3ffff;fill-opacity:1;fill-rule:nonzero;stroke:none" />
  <path
     id="path121"
     d="M 1072,200 L 1072,184"
     style="fill:none;stroke:#000000;stroke-width:0.40000001;stroke-linecap:square;stroke-linejoin:miter;stroke-miterlimit:10;stroke-opacity:1" />
  <path
     id="path123"
     d="M 1076,200 L 1076,188"
     style="fill:none;stroke:#000000;stroke-width:0.40000001;stroke-linecap:square;stroke-linejoin:miter;stroke-miterlimit:10;stroke-opacity:1" />
  <path
     id="path125"
     d="M 1084,200 L 1084,180"
     style="fill:none;stroke:#000000;stroke-width:0.40000001;stroke-linecap:square;stroke-linejoin:miter;stroke-miterlimit:10;stroke-opacity:1" />
  <path
     id="path127"
     d="M 1088,200 L 1088,188"
     style="fill:none;stroke:#000000;stroke-width:0.40000001;stroke-linecap:square;stroke-linejoin:miter;stroke-miterlimit:10;stroke-opacity:1" />
  <path
     id="path129"
     d="M 1088,184 L 1088,180"
     style="fill:none;stroke:#000000;stroke-width:0.40000001;stroke-linecap:square;stroke-linejoin:miter;stroke-miterlimit:10;stroke-opacity:1" />
  <path
     id="path131"
     d="M 1096,200 L 1096,184"
     style="fill:none;stroke:#000000;stroke-width:0.40000001;stroke-linecap:square;stroke-linejoin:miter;stroke-miterlimit:10;stroke-opacity:1" />
  <path
     id="path133"
     d="M 1100,200 L 1100,172"
     style="fill:none;stroke:#000000;stroke-width:0.40000001;stroke-linecap:square;stroke-linejoin:miter;stroke-miterlimit:10;stroke-opacity:1" />
  <path
     id="path135"
     d="M 1108,200 L 1108,184"
     style="fill:none;stroke:#000000;stroke-width:0.40000001;stroke-linecap:square;stroke-linejoin:miter;stroke-miterlimit:10;stroke-opacity:1" />
  <path
     id="path137"
     d="M 1116,200 L 1116,184"
     style="fill:none;stroke:#000000;stroke-width:0.40000001;stroke-linecap:square;stroke-linejoin:miter;stroke-miterlimit:10;stroke-opacity:1" />
  <path
     id="path139"
     d="M 1128,200 L 1128,176"
     style="fill:none;stroke:#000000;stroke-width:0.40000001;stroke-linecap:square;stroke-linejoin:miter;stroke-miterlimit:10;stroke-opacity:1" />
  <path
     id="path141"
     d="M 0,200 L 200,200 L 200,400 L 0,400 L 0,200 z "
     style="fill:none;stroke:#000000;stroke-width:0.40000001;stroke-linecap:square;stroke-linejoin:miter;stroke-miterlimit:10;stroke-opacity:1" />
  <path
     id="path143"
     d="M 100,400 L 200,400 L 200,300"
     style="fill:#b3b3ff;fill-opacity:1;fill-rule:nonzero;stroke:none" />
  <path
     id="path145"
     d="M 100,400 L 0,400 L 0,300"
     style="fill:#b3ffff;fill-opacity:1;fill-rule:nonzero;stroke:none" />
  <path
     id="path147"
     d="M 50,376 L 88,374 L 128,376"
     style="fill:none;stroke:#000000;stroke-width:0.40000001;stroke-linecap:square;stroke-linejoin:miter;stroke-miterlimit:10;stroke-opacity:1" />
  <path
     id="path149"
     d="M 50,380 L 128,380"
     style="fill:none;stroke:#000000;stroke-width:0.40000001;stroke-linecap:square;stroke-linejoin:miter;stroke-miterlimit:10;stroke-opacity:1" />
  <path
     id="path151"
     d="M 58,384 L 124,384"
     style="fill:none;stroke:#000000;stroke-width:0.40000001;stroke-linecap:square;stroke-linejoin:miter;stroke-miterlimit:10;stroke-opacity:1" />
  <path
     id="path153"
     d="M 60,388 L 88,388"
     style="fill:none;stroke:#000000;stroke-width:0.40000001;stroke-linecap:square;stroke-linejoin:miter;stroke-miterlimit:10;stroke-opacity:1" />
  <path
     id="path155"
     d="M 54,392 L 110,392"
     style="fill:none;stroke:#000000;stroke-width:0.40000001;stroke-linecap:square;stroke-linejoin:miter;stroke-miterlimit:10;stroke-opacity:1" />
  <path
     id="path157"
     d="M 58,400 L 88,396 L 110,400"
     style="fill:none;stroke:#000000;stroke-width:0.40000001;stroke-linecap:square;stroke-linejoin:miter;stroke-miterlimit:10;stroke-opacity:1" />
  <path
     id="path159"
     d="M 200,200 L 400,200 L 400,400 L 200,400 L 200,200 z "
     style="fill:none;stroke:#000000;stroke-width:0.40000001;stroke-linecap:square;stroke-linejoin:miter;stroke-miterlimit:10;stroke-opacity:1" />
  <path
     id="path161"
     d="M 300,400 L 400,400 L 400,300"
     style="fill:#b3b3ff;fill-opacity:1;fill-rule:nonzero;stroke:none" />
  <path
     id="path163"
     d="M 300,400 L 200,400 L 200,300"
     style="fill:#b3ffff;fill-opacity:1;fill-rule:nonzero;stroke:none" />
  <path
     id="path165"
     d="M 368,356 L 392,332 L 440,332 L 440,336 L 416,360 L 368,360 L 368,356 z "
     style="fill:#000000;fill-opacity:1;fill-rule:nonzero;stroke:none" />
  <path
     id="path167"
     d="M 400,200 L 600,200 L 600,400 L 400,400 L 400,200 z "
     style="fill:none;stroke:#000000;stroke-width:0.40000001;stroke-linecap:square;stroke-linejoin:miter;stroke-miterlimit:10;stroke-opacity:1" />
  <path
     id="path169"
     d="M 500,400 L 600,400 L 600,300"
     style="fill:#b3b3ff;fill-opacity:1;fill-rule:nonzero;stroke:none" />
  <path
     id="path171"
     d="M 500,400 L 400,400 L 400,300"
     style="fill:#b3ffff;fill-opacity:1;fill-rule:nonzero;stroke:none" />
  <path
     id="path173"
     d="M 468,396 L 492,372 L 540,372 L 540,376 L 516,400 L 468,400 L 468,396"
     style="fill:none;stroke:#000000;stroke-width:0.40000001;stroke-linecap:square;stroke-linejoin:miter;stroke-miterlimit:10;stroke-opacity:1" />
  <path
     id="path175"
     d="M 468,396 L 516,396 L 540,372"
     style="fill:none;stroke:#000000;stroke-width:0.40000001;stroke-linecap:square;stroke-linejoin:miter;stroke-miterlimit:10;stroke-opacity:1" />
  <path
     id="path177"
     d="M 476,400 L 476,396 L 500,372"
     style="fill:none;stroke:#000000;stroke-width:0.40000001;stroke-linecap:square;stroke-linejoin:miter;stroke-miterlimit:10;stroke-opacity:1" />
  <path
     id="path179"
     d="M 484,400 L 484,396 L 508,372"
     style="fill:none;stroke:#000000;stroke-width:0.40000001;stroke-linecap:square;stroke-linejoin:miter;stroke-miterlimit:10;stroke-opacity:1" />
  <path
     id="path181"
     d="M 492,400 L 492,396 L 516,372"
     style="fill:none;stroke:#000000;stroke-width:0.40000001;stroke-linecap:square;stroke-linejoin:miter;stroke-miterlimit:10;stroke-opacity:1" />
  <path
     id="path183"
     d="M 500,400 L 500,396 L 524,372"
     style="fill:none;stroke:#000000;stroke-width:0.40000001;stroke-linecap:square;stroke-linejoin:miter;stroke-miterlimit:10;stroke-opacity:1" />
  <path
     id="path185"
     d="M 508,400 L 508,396 L 532,372"
     style="fill:none;stroke:#000000;stroke-width:0.40000001;stroke-linecap:square;stroke-linejoin:miter;stroke-miterlimit:10;stroke-opacity:1" />
  <path
     id="path187"
     d="M 600,200 L 800,200 L 800,400 L 600,400 L 600,200 z "
     style="fill:none;stroke:#000000;stroke-width:0.40000001;stroke-linecap:square;stroke-linejoin:miter;stroke-miterlimit:10;stroke-opacity:1" />
  <path
     id="path189"
     d="M 700,400 L 800,400 L 800,300"
     style="fill:#b3b3ff;fill-opacity:1;fill-rule:nonzero;stroke:none" />
  <path
     id="path191"
     d="M 700,400 L 600,400 L 600,300"
     style="fill:#b3ffff;fill-opacity:1;fill-rule:nonzero;stroke:none" />
  <path
     id="path193"
     d="M 768,360 L 766,352 L 766.80078,352 L 768,356 L 768,348 L 768.80078,348.80078 L 768,360"
     style="fill:none;stroke:#000000;stroke-width:0.40000001;stroke-linecap:square;stroke-linejoin:miter;stroke-miterlimit:10;stroke-opacity:1" />
  <path
     id="path195"
     d="M 780,360 L 780,352 L 776,348 L 776,344 L 776,348 L 780,344"
     style="fill:none;stroke:#000000;stroke-width:0.40000001;stroke-linecap:square;stroke-linejoin:miter;stroke-miterlimit:10;stroke-opacity:1" />
  <path
     id="path197"
     d="M 780,356 L 792,348"
     style="fill:none;stroke:#000000;stroke-width:0.40000001;stroke-linecap:square;stroke-linejoin:miter;stroke-miterlimit:10;stroke-opacity:1" />
  <path
     id="path199"
     d="M 792,360 L 796,352"
     style="fill:none;stroke:#000000;stroke-width:0.40000001;stroke-linecap:square;stroke-linejoin:miter;stroke-miterlimit:10;stroke-opacity:1" />
  <path
     id="path201"
     d="M 800,360 L 800,352 L 808,348 L 802,352 L 800,348 L 804,344"
     style="fill:none;stroke:#000000;stroke-width:0.40000001;stroke-linecap:square;stroke-linejoin:miter;stroke-miterlimit:10;stroke-opacity:1" />
  <path
     id="path203"
     d="M 808,360 L 812,348"
     style="fill:none;stroke:#000000;stroke-width:0.40000001;stroke-linecap:square;stroke-linejoin:miter;stroke-miterlimit:10;stroke-opacity:1" />
  <path
     id="path205"
     d="M 824,360 L 824,352 L 820,352 L 820,360 L 824,360 z "
     style="fill:#000000;fill-opacity:1;fill-rule:nonzero;stroke:none" />
  <path
     id="path207"
     d="M 824,354 L 828,354 L 832,350 L 832,348 L 824,340 L 820,340 L 816,344 L 814,352 L 816,354 L 820,354"
     style="fill:none;stroke:#000000;stroke-width:0.40000001;stroke-linecap:square;stroke-linejoin:miter;stroke-miterlimit:10;stroke-opacity:1" />
  <path
     id="path209"
     d="M 824,350 L 824,348 L 828,348 L 824,350 z "
     style="fill:#000000;fill-opacity:1;fill-rule:nonzero;stroke:none" />
  <path
     id="path211"
     d="M 838,360 L 838,352"
     style="fill:none;stroke:#000000;stroke-width:0.40000001;stroke-linecap:square;stroke-linejoin:miter;stroke-miterlimit:10;stroke-opacity:1" />
  <path
     id="path213"
     d="M 800,200 L 1000,200 L 1000,400 L 800,400 L 800,200 z "
     style="fill:none;stroke:#000000;stroke-width:0.40000001;stroke-linecap:square;stroke-linejoin:miter;stroke-miterlimit:10;stroke-opacity:1" />
  <path
     id="path215"
     d="M 900,400 L 1000,400 L 1000,300"
     style="fill:#b3b3ff;fill-opacity:1;fill-rule:nonzero;stroke:none" />
  <path
     id="path217"
     d="M 900,400 L 800,400 L 800,300"
     style="fill:#b3ffff;fill-opacity:1;fill-rule:nonzero;stroke:none" />
  <g
     id="g3003">
    <path
       style="fill:none;stroke:#000000;stroke-width:0.40000001;stroke-linecap:square;stroke-linejoin:miter;stroke-miterlimit:10;stroke-opacity:1"
       d="M 868,400 L 930,400"
       id="path219" />
    <path
       style="fill:none;stroke:#000000;stroke-width:0.40000001;stroke-linecap:square;stroke-linejoin:miter;stroke-miterlimit:10;stroke-opacity:1"
       d="M 874,400 L 870,376 L 872,376 L 876,400"
       id="path221" />
    <path
       style="fill:none;stroke:#000000;stroke-width:0.40000001;stroke-linecap:square;stroke-linejoin:miter;stroke-miterlimit:10;stroke-opacity:1"
       d="M 868,376 L 866,378 L 864,374 L 864,370 L 866,368 L 870,364 L 874,364 L 874,366 L 878,370 L 878,380 L 874,376 L 870,376"
       id="path223" />
    <path
       style="fill:none;stroke:#000000;stroke-width:0.40000001;stroke-linecap:square;stroke-linejoin:miter;stroke-miterlimit:10;stroke-opacity:1"
       d="M 874,390 L 876,390 L 876,388"
       id="path225" />
    <path
       style="fill:#000000;fill-opacity:1;fill-rule:nonzero;stroke:none"
       d="M 886,400 L 884,396 L 886,382 L 886,396 L 888,400 L 886,400 z "
       id="path227" />
    <path
       style="fill:none;stroke:#000000;stroke-width:0.40000001;stroke-linecap:square;stroke-linejoin:miter;stroke-miterlimit:10;stroke-opacity:1"
       d="M 886,396 L 890,392"
       id="path229" />
    <path
       style="fill:none;stroke:#000000;stroke-width:0.40000001;stroke-linecap:square;stroke-linejoin:miter;stroke-miterlimit:10;stroke-opacity:1"
       d="M 898,400 L 898,392 L 896,388 L 900,384 L 900,380"
       id="path231" />
    <path
       style="fill:none;stroke:#000000;stroke-width:0.40000001;stroke-linecap:square;stroke-linejoin:miter;stroke-miterlimit:10;stroke-opacity:1"
       d="M 896,388 L 894,386 L 894,382 L 892,380 L 892,374"
       id="path233" />
    <path
       style="fill:#000000;fill-opacity:1;fill-rule:nonzero;stroke:none"
       d="M 906,400 L 904,398 L 904,392 L 906,384 L 904,376 L 906,376 L 910,386 L 908,386 L 906,392 L 906,398 L 908,400 L 906,400 z "
       id="path235" />
    <path
       style="fill:none;stroke:#000000;stroke-width:0.40000001;stroke-linecap:square;stroke-linejoin:miter;stroke-miterlimit:10;stroke-opacity:1"
       d="M 902,374 L 902,376 L 900,372 L 900,376 L 896,376 L 898,374 L 898,370 L 900,366 L 902,366 L 902,362 L 906,362 L 906,366 L 908,364 L 912,364 L 912,366 L 914,368 L 914,370 L 918,370 L 918,374 L 914,378 L 912,374 L 904,374"
       id="path237" />
    <path
       style="fill:#000000;fill-opacity:1;fill-rule:nonzero;stroke:none"
       d="M 922,400 L 922,394 L 924,390 L 924,388 L 920.80078,386 L 920,378 L 922,384 L 926,386 L 928,380 L 928,374 L 926,366 L 928,366 L 930,374 L 930,380 L 924,394 L 924,400 L 924,400 L 922,400 z "
       id="path239" />
  </g>
  <path
     id="path241"
     d="M 1000,200 L 1200,200 L 1200,400 L 1000,400 L 1000,200 z "
     style="fill:none;stroke:#000000;stroke-width:0.40000001;stroke-linecap:square;stroke-linejoin:miter;stroke-miterlimit:10;stroke-opacity:1" />
  <path
     id="path243"
     d="M 1100,400 L 1200,400 L 1200,300"
     style="fill:#b3b3ff;fill-opacity:1;fill-rule:nonzero;stroke:none" />
  <path
     id="path245"
     d="M 1100,400 L 1000,400 L 1000,300"
     style="fill:#b3ffff;fill-opacity:1;fill-rule:nonzero;stroke:none" />
  <path
     id="path247"
     d="M 1168,336 L 1166,338 L 1164,334 L 1164,330 L 1166,328 L 1170,324 L 1174,324 L 1174,326 L 1178,330 L 1178,340 L 1174,336 L 1170,336 L 1168,336 z "
     style="fill:#000000;fill-opacity:1;fill-rule:nonzero;stroke:none" />
  <path
     id="path249"
     d="M 0,400 L 200,400 L 200,600 L 0,600 L 0,400 z "
     style="fill:none;stroke:#000000;stroke-width:0.40000001;stroke-linecap:square;stroke-linejoin:miter;stroke-miterlimit:10;stroke-opacity:1" />
  <path
     id="path251"
     d="M 100,600 L 200,600 L 200,500"
     style="fill:#b3b3ff;fill-opacity:1;fill-rule:nonzero;stroke:none" />
  <path
     id="path253"
     d="M 100,600 L 0,600 L 0,500"
     style="fill:#b3ffff;fill-opacity:1;fill-rule:nonzero;stroke:none" />
  <path
     id="path255"
     d="M 202,534 L 202,536 L 200,532 L 200,536 L 196,536 L 198,534 L 198,530 L 200,526 L 202,526 L 202,522 L 206,522 L 206,526 L 208,524 L 212,524 L 212,526 L 214,528 L 214,530 L 218,530 L 218,534 L 214,538 L 212,534 L 204,534 L 202,534 z "
     style="fill:#000000;fill-opacity:1;fill-rule:nonzero;stroke:none" />
  <path
     id="path257"
     d="M 200,400 L 400,400 L 400,600 L 200,600 L 200,400 z "
     style="fill:none;stroke:#000000;stroke-width:0.40000001;stroke-linecap:square;stroke-linejoin:miter;stroke-miterlimit:10;stroke-opacity:1" />
  <path
     id="path259"
     d="M 300,600 L 400,600 L 400,500"
     style="fill:#b3b3ff;fill-opacity:1;fill-rule:nonzero;stroke:none" />
  <path
     id="path261"
     d="M 300,600 L 200,600 L 200,500"
     style="fill:#b3ffff;fill-opacity:1;fill-rule:nonzero;stroke:none" />
  <path
     id="path263"
     d="M 360,556 L 360,552 L 388,540 L 412,540 L 440,552 L 440,552"
     style="fill:none;stroke:#000000;stroke-width:0.40000001;stroke-linecap:square;stroke-linejoin:miter;stroke-miterlimit:10;stroke-opacity:1" />
  <path
     id="path265"
     d="M 388,540 L 388,544"
     style="fill:none;stroke:#000000;stroke-width:0.40000001;stroke-linecap:square;stroke-linejoin:miter;stroke-miterlimit:10;stroke-opacity:1" />
  <path
     id="path267"
     d="M 412,540 L 412,544"
     style="fill:none;stroke:#000000;stroke-width:0.40000001;stroke-linecap:square;stroke-linejoin:miter;stroke-miterlimit:10;stroke-opacity:1" />
  <path
     id="path269"
     d="M 360,560 L 380,560 C 380,555.58203 383.58203,552 388,552 C 392.41797,552 396,555.58203 396,560 L 404,560 C 404,555.58203 407.58203,552 412,552 C 416.41797,552 420,555.58203 420,560 L 440,560 L 440,556 L 412,544 L 388,544 L 360,556 L 360,560 z "
     style="fill:#000000;fill-opacity:1;fill-rule:nonzero;stroke:none" />
  <path
     id="path271"
     d="M 400,400 L 600,400 L 600,600 L 400,600 L 400,400 z "
     style="fill:none;stroke:#000000;stroke-width:0.40000001;stroke-linecap:square;stroke-linejoin:miter;stroke-miterlimit:10;stroke-opacity:1" />
  <path
     id="path273"
     d="M 500,600 L 600,600 L 600,500"
     style="fill:#b3b3ff;fill-opacity:1;fill-rule:nonzero;stroke:none" />
  <path
     id="path275"
     d="M 500,600 L 400,600 L 400,500"
     style="fill:#b3ffff;fill-opacity:1;fill-rule:nonzero;stroke:none" />
  <path
     id="path277"
     d="M 560,556 L 560,552 L 588,540 L 612,540 L 640,552 L 640,552"
     style="fill:none;stroke:#000000;stroke-width:0.40000001;stroke-linecap:square;stroke-linejoin:miter;stroke-miterlimit:10;stroke-opacity:1" />
  <path
     id="path279"
     d="M 588,540 L 588,544"
     style="fill:none;stroke:#000000;stroke-width:0.40000001;stroke-linecap:square;stroke-linejoin:miter;stroke-miterlimit:10;stroke-opacity:1" />
  <path
     id="path281"
     d="M 612,540 L 612,544"
     style="fill:none;stroke:#000000;stroke-width:0.40000001;stroke-linecap:square;stroke-linejoin:miter;stroke-miterlimit:10;stroke-opacity:1" />
  <path
     id="path283"
     d="M 560,560 L 580,560 C 580,555.58203 583.58203,552 588,552 C 592.41797,552 596,555.58203 596,560 L 604,560 C 604,555.58203 607.58203,552 612,552 C 616.41797,552 620,555.58203 620,560 L 640,560 L 640,556 L 612,544 L 588,544 L 560,556 L 560,560"
     style="fill:none;stroke:#000000;stroke-width:0.40000001;stroke-linecap:square;stroke-linejoin:miter;stroke-miterlimit:10;stroke-opacity:1" />
  <path
     id="path285"
     d="M 600,400 L 800,400 L 800,600 L 600,600 L 600,400 z "
     style="fill:none;stroke:#000000;stroke-width:0.40000001;stroke-linecap:square;stroke-linejoin:miter;stroke-miterlimit:10;stroke-opacity:1" />
  <path
     id="path287"
     d="M 700,600 L 800,600 L 800,500"
     style="fill:#b3b3ff;fill-opacity:1;fill-rule:nonzero;stroke:none" />
  <path
     id="path289"
     d="M 700,600 L 600,600 L 600,500"
     style="fill:#b3ffff;fill-opacity:1;fill-rule:nonzero;stroke:none" />
  <path
     id="path291"
     d="M 740,542 L 730,544 L 720,552 L 718,560 L 718,570 L 722,576 L 734,582"
     style="fill:none;stroke:#000099;stroke-width:1;stroke-linecap:square;stroke-linejoin:miter;stroke-miterlimit:10;stroke-opacity:1" />
  <path
     id="path293"
     d="M 750,544 L 760,548 L 768,554 L 772,562 L 770,570 L 766,578 L 760,584 L 750,586"
     style="fill:none;stroke:#000099;stroke-width:1;stroke-linecap:square;stroke-linejoin:miter;stroke-miterlimit:10;stroke-opacity:1" />
  <path
     id="path295"
     d="M 754,550 L 740,548 L 736,548 L 730,554 L 726,558 L 726,564 L 730,570 L 736,574 L 740,574"
     style="fill:none;stroke:#000099;stroke-width:1;stroke-linecap:square;stroke-linejoin:miter;stroke-miterlimit:10;stroke-opacity:1" />
  <path
     id="path297"
     d="M 756,554 L 760,558 L 762,564 L 762,572 L 758,578 L 754,580 L 746,580"
     style="fill:none;stroke:#000099;stroke-width:1;stroke-linecap:square;stroke-linejoin:miter;stroke-miterlimit:10;stroke-opacity:1" />
  <path
     id="path299"
     d="M 744,554 L 740,554 L 736,556 L 734,560 L 734,564 L 738,568 L 742,570 L 746,570 L 750,568 L 752,564 L 752,562"
     style="fill:none;stroke:#000099;stroke-width:1;stroke-linecap:square;stroke-linejoin:miter;stroke-miterlimit:10;stroke-opacity:1" />
  <path
     id="path301"
     d="M 746,558 L 750,558 L 754,560 L 756,564 L 756,568 L 754,572 L 748,574"
     style="fill:none;stroke:#000099;stroke-width:1;stroke-linecap:square;stroke-linejoin:miter;stroke-miterlimit:10;stroke-opacity:1" />
  <path
     id="path303"
     d="M 800,400 L 1000,400 L 1000,600 L 800,600 L 800,400 z "
     style="fill:none;stroke:#000000;stroke-width:0.40000001;stroke-linecap:square;stroke-linejoin:miter;stroke-miterlimit:10;stroke-opacity:1" />
  <path
     id="path305"
     d="M 900,600 L 1000,600 L 1000,500"
     style="fill:#b3b3ff;fill-opacity:1;fill-rule:nonzero;stroke:none" />
  <path
     id="path307"
     d="M 900,600 L 800,600 L 800,500"
     style="fill:#b3ffff;fill-opacity:1;fill-rule:nonzero;stroke:none" />
  <path
     id="path309"
     d="M 864,600 L 936,600 L 936,592 L 924,584 L 928,588 L 916,588 L 916,586 L 922,586 L 922,582 L 916,582 L 916,580 L 924,580 L 932,588"
     style="fill:none;stroke:#000000;stroke-width:0.40000001;stroke-linecap:square;stroke-linejoin:miter;stroke-miterlimit:10;stroke-opacity:1" />
  <path
     id="path311"
     d="M 916,588 L 908,588 L 908,592 L 904,592 L 904,596 L 900,596 L 900,592 L 896,592 L 900,594 L 896,594 L 896,592 L 898,594 L 892,594 L 892,592 L 890,592 L 890,588 L 894,588 L 892,586 L 890,586 L 890,580 L 888,580 L 888,600 L 888,592 L 884,592 L 884,588 L 880,588 L 880,600 L 878,600 L 878,588 L 878,592 L 884,592 L 876,592 L 874,594 L 872,592 L 872,596 L 870,596 L 870,588 L 868,588 L 868,600 L 866,600 L 868,592 L 864,596 L 864,600"
     style="fill:none;stroke:#000000;stroke-width:0.40000001;stroke-linecap:square;stroke-linejoin:miter;stroke-miterlimit:10;stroke-opacity:1" />
  <path
     id="path313"
     d="M 1000,400 L 1200,400 L 1200,600 L 1000,600 L 1000,400 z "
     style="fill:none;stroke:#000000;stroke-width:0.40000001;stroke-linecap:square;stroke-linejoin:miter;stroke-miterlimit:10;stroke-opacity:1" />
  <path
     id="path315"
     d="M 1100,600 L 1200,600 L 1200,500"
     style="fill:#b3b3ff;fill-opacity:1;fill-rule:nonzero;stroke:none" />
  <path
     id="path317"
     d="M 1100,600 L 1000,600 L 1000,500"
     style="fill:#b3ffff;fill-opacity:1;fill-rule:nonzero;stroke:none" />
  <path
     id="path319"
     d="M 1164,560 L 1236,560"
     style="fill:none;stroke:#000000;stroke-width:0.40000001;stroke-linecap:square;stroke-linejoin:miter;stroke-miterlimit:10;stroke-opacity:1" />
  <path
     id="path321"
     d="M 1236,560 L 1236,552 L 1228,544 L 1220,540 L 1220,542 L 1224,544 L 1228,548 L 1228,560 L 1236,560 z "
     style="fill:#000000;fill-opacity:1;fill-rule:nonzero;stroke:none" />
  <path
     id="path323"
     d="M 1176,544 L 1164,556 L 1164,560 L 1172,560 L 1172,552 L 1176,548 L 1180,548 L 1180,546 L 1178,546 L 1178,544 L 1176,544 z "
     style="fill:#000000;fill-opacity:1;fill-rule:nonzero;stroke:none" />
  <path
     id="path325"
     d="M 1184,548 L 1188,552 L 1188,560 L 1192,560 L 1192,546 L 1194,542 L 1188,542 L 1188,544 L 1186,544 L 1186,546 L 1184,546 L 1184,548 z "
     style="fill:#000000;fill-opacity:1;fill-rule:nonzero;stroke:none" />
  <path
     id="path327"
     d="M 1196,560 L 1196,546"
     style="fill:none;stroke:#000000;stroke-width:0.40000001;stroke-linecap:square;stroke-linejoin:miter;stroke-miterlimit:10;stroke-opacity:1" />
  <path
     id="path329"
     d="M 1196,538 L 1196,536"
     style="fill:none;stroke:#000000;stroke-width:0.40000001;stroke-linecap:square;stroke-linejoin:miter;stroke-miterlimit:10;stroke-opacity:1" />
  <path
     id="path331"
     d="M 1204,560 L 1204,536"
     style="fill:none;stroke:#000000;stroke-width:0.40000001;stroke-linecap:square;stroke-linejoin:miter;stroke-miterlimit:10;stroke-opacity:1" />
  <path
     id="path333"
     d="M 1196,560 L 1204,550 L 1196,550 L 1204,540 L 1196,540"
     style="fill:none;stroke:#000000;stroke-width:0.40000001;stroke-linecap:square;stroke-linejoin:miter;stroke-miterlimit:10;stroke-opacity:1" />
  <path
     id="path335"
     d="M 1204,550 L 1210,560"
     style="fill:none;stroke:#000000;stroke-width:0.40000001;stroke-linecap:square;stroke-linejoin:miter;stroke-miterlimit:10;stroke-opacity:1" />
  <path
     id="path337"
     d="M 1222,560 L 1222,546"
     style="fill:none;stroke:#000000;stroke-width:0.40000001;stroke-linecap:square;stroke-linejoin:miter;stroke-miterlimit:10;stroke-opacity:1" />
  <path
     id="path339"
     d="M 1222,540 L 1222,536"
     style="fill:none;stroke:#000000;stroke-width:0.40000001;stroke-linecap:square;stroke-linejoin:miter;stroke-miterlimit:10;stroke-opacity:1" />
  <path
     id="path341"
     d="M 1230,544 L 1230,536"
     style="fill:none;stroke:#000000;stroke-width:0.40000001;stroke-linecap:square;stroke-linejoin:miter;stroke-miterlimit:10;stroke-opacity:1" />
  <path
     id="path343"
     d="M 1222,560 L 1226,556"
     style="fill:none;stroke:#000000;stroke-width:0.40000001;stroke-linecap:square;stroke-linejoin:miter;stroke-miterlimit:10;stroke-opacity:1" />
  <path
     id="path345"
     d="M 1226,550 L 1222,550 L 1224,548"
     style="fill:none;stroke:#000000;stroke-width:0.40000001;stroke-linecap:square;stroke-linejoin:miter;stroke-miterlimit:10;stroke-opacity:1" />
  <path
     id="path347"
     d="M 1230,540 L 1222,540"
     style="fill:none;stroke:#000000;stroke-width:0.40000001;stroke-linecap:square;stroke-linejoin:miter;stroke-miterlimit:10;stroke-opacity:1" />
  <path
     id="path349"
     d="M 1214,560 L 1222,550"
     style="fill:none;stroke:#000000;stroke-width:0.40000001;stroke-linecap:square;stroke-linejoin:miter;stroke-miterlimit:10;stroke-opacity:1" />
  <path
     id="path351"
     d="M 0,600 L 200,600 L 200,800 L 0,800 L 0,600 z "
     style="fill:none;stroke:#000000;stroke-width:0.40000001;stroke-linecap:square;stroke-linejoin:miter;stroke-miterlimit:10;stroke-opacity:1" />
  <path
     id="path353"
     d="M 100,800 L 200,800 L 200,700"
     style="fill:#b3b3ff;fill-opacity:1;fill-rule:nonzero;stroke:none" />
  <path
     id="path355"
     d="M 100,800 L 0,800 L 0,700"
     style="fill:#b3ffff;fill-opacity:1;fill-rule:nonzero;stroke:none" />
  <g
     id="g4026">
    <path
       style="fill:none;stroke:#000000;stroke-width:0.40000001;stroke-linecap:square;stroke-linejoin:miter;stroke-miterlimit:10;stroke-opacity:1"
       d="M 64,800 L 136,800"
       id="path357" />
    <path
       style="fill:#000000;fill-opacity:1;fill-rule:nonzero;stroke:none"
       d="M 136,800 L 136,792 L 128,784 L 112,776 L 92,776 L 76,784 L 64,796 L 64,800 L 72,800 L 72,792 L 76,788 L 84,788 L 88,792 L 88,800 L 92,800 L 92,784 L 96,780 L 112,780 L 124,784 L 128,788 L 128,800 L 136,800 z "
       id="path359" />
    <path
       style="fill:none;stroke:#000000;stroke-width:0.40000001;stroke-linecap:square;stroke-linejoin:miter;stroke-miterlimit:10;stroke-opacity:1"
       d="M 74,794 L 86,794"
       id="path361" />
    <path
       style="fill:none;stroke:#000000;stroke-width:0.40000001;stroke-linecap:square;stroke-linejoin:miter;stroke-miterlimit:10;stroke-opacity:1"
       d="M 94,792 L 126,792"
       id="path363" />
    <path
       style="fill:none;stroke:#000000;stroke-width:0.40000001;stroke-linecap:square;stroke-linejoin:miter;stroke-miterlimit:10;stroke-opacity:1"
       d="M 96,798 L 96,784"
       id="path365" />
    <path
       style="fill:none;stroke:#000000;stroke-width:0.40000001;stroke-linecap:square;stroke-linejoin:miter;stroke-miterlimit:10;stroke-opacity:1"
       d="M 100,798 L 100,784"
       id="path367" />
    <path
       style="fill:none;stroke:#000000;stroke-width:0.40000001;stroke-linecap:square;stroke-linejoin:miter;stroke-miterlimit:10;stroke-opacity:1"
       d="M 104,798 L 104,784"
       id="path369" />
    <path
       style="fill:none;stroke:#000000;stroke-width:0.40000001;stroke-linecap:square;stroke-linejoin:miter;stroke-miterlimit:10;stroke-opacity:1"
       d="M 108,798 L 108,784"
       id="path371" />
    <path
       style="fill:none;stroke:#000000;stroke-width:0.40000001;stroke-linecap:square;stroke-linejoin:miter;stroke-miterlimit:10;stroke-opacity:1"
       d="M 112,798 L 112,784"
       id="path373" />
    <path
       style="fill:none;stroke:#000000;stroke-width:0.40000001;stroke-linecap:square;stroke-linejoin:miter;stroke-miterlimit:10;stroke-opacity:1"
       d="M 116,798 L 116,784"
       id="path375" />
    <path
       style="fill:none;stroke:#000000;stroke-width:0.40000001;stroke-linecap:square;stroke-linejoin:miter;stroke-miterlimit:10;stroke-opacity:1"
       d="M 120,798 L 120,786"
       id="path377" />
    <path
       style="fill:none;stroke:#000000;stroke-width:0.40000001;stroke-linecap:square;stroke-linejoin:miter;stroke-miterlimit:10;stroke-opacity:1"
       d="M 124,798 L 124,788"
       id="path379" />
  </g>
  <path
     id="path381"
     d="M 200,600 L 400,600 L 400,800 L 200,800 L 200,600 z "
     style="fill:none;stroke:#000000;stroke-width:0.40000001;stroke-linecap:square;stroke-linejoin:miter;stroke-miterlimit:10;stroke-opacity:1" />
  <path
     id="path383"
     d="M 300,800 L 400,800 L 400,700"
     style="fill:#b3b3ff;fill-opacity:1;fill-rule:nonzero;stroke:none" />
  <path
     id="path385"
     d="M 300,800 L 200,800 L 200,700"
     style="fill:#b3ffff;fill-opacity:1;fill-rule:nonzero;stroke:none" />
  <path
     id="path387"
     d="M 330,772 L 330,776 L 334,776 L 334,772 L 330,772 z "
     style="fill:#000000;fill-opacity:1;fill-rule:nonzero;stroke:none" />
  <path
     id="path389"
     d="M 330,778 L 330,784 L 332,790 L 334,782 L 334,778 L 330,778 z "
     style="fill:#000000;fill-opacity:1;fill-rule:nonzero;stroke:none" />
  <path
     id="path391"
     d="M 332,650 L 328,656 L 330,660 L 334,660 L 336,656 L 332,650 z "
     style="fill:#000000;fill-opacity:1;fill-rule:nonzero;stroke:none" />
  <path
     id="path393"
     d="M 330,662 L 330,664 L 310,664 L 310,668 L 330,668 L 330,770 L 334,770 L 334,668 L 354,668 L 354,664 L 334,664 L 334,662 L 330,662 z "
     style="fill:#000000;fill-opacity:1;fill-rule:nonzero;stroke:none" />
  <path
     id="path395"
     d="M 312,670 L 312,686 L 310,690 L 306,694 L 304,698 L 314,698 L 316,694 L 316,698 L 338,698 L 340,694 L 344,694 L 342,698 L 344,698 L 350,690 L 352,684 L 352,670 L 334,670 L 312,670 z "
     style="fill:#000000;fill-opacity:1;fill-rule:nonzero;stroke:none" />
  <path
     id="path397"
     d="M 372,792 L 370,788 L 374,788 L 370,784 L 370,772 L 372,768 L 376,766 L 380,766 L 382,770 L 382,784 L 378,788 L 382,788 L 380,792 L 406,792 L 404,788 L 396,784 L 396,768 L 394,764 L 404,758 L 408,750 L 412,730 L 416,726 L 420,724 L 424,728 L 426,732 L 428,728 L 432,726 L 430,724 L 430,722 L 434,716 L 428,718 L 426,718 L 426,712 L 420,716 L 416,716 L 408,720 L 398,742 L 394,748 L 388,752 L 390,746 L 394,744 L 396,740 L 392,740 L 394,736 L 398,734 L 400,730 L 394,728 L 398,722 L 394,720 L 394,718 L 402,716 L 398,712 L 398,708 L 400,702 L 394,702 L 392,698 L 388,700 L 386,696 L 384,700 L 380,700 L 376,704 L 368,706 L 366,704 L 364,708 L 362,706 L 360,710 L 358,712 L 360,716 L 364,718 L 376,716 L 374,720 L 364,722 L 360,724 L 358,722 L 352,722 L 340,724 L 334,722 L 330,722 L 328,722 L 326,724 L 326,728 L 324,730 L 324,732 L 326,734 L 326,736 L 328,738 L 330,738 L 334,738 L 338,734 L 354,734 L 360,732 L 366,734 L 364,736 L 364,742 L 366,744 L 370,750 L 370,754 L 362,762 L 358,770 L 358,782 L 350,786 L 346,790 L 346,792 L 372,792 z "
     style="fill:#000000;fill-opacity:1;fill-rule:nonzero;stroke:none" />
  <path
     id="path399"
     d="M 384,708 L 378,708 L 384,704 L 384,708 z "
     style="fill:#ff0000;fill-opacity:1;fill-rule:nonzero;stroke:none" />
  <path
     id="path401"
     d="M 400,600 L 600,600 L 600,800 L 400,800 L 400,600 z "
     style="fill:none;stroke:#000000;stroke-width:0.40000001;stroke-linecap:square;stroke-linejoin:miter;stroke-miterlimit:10;stroke-opacity:1" />
  <path
     id="path403"
     d="M 500,800 L 600,800 L 600,700"
     style="fill:#b3b3ff;fill-opacity:1;fill-rule:nonzero;stroke:none" />
  <path
     id="path405"
     d="M 500,800 L 400,800 L 400,700"
     style="fill:#b3ffff;fill-opacity:1;fill-rule:nonzero;stroke:none" />
  <path
     id="path407"
     d="M 520,800 L 560,800 L 560,796 L 564,800 L 560,792 L 560,788 L 564,780 L 580,764 L 592,760 L 600,764 L 612,792 L 596,792 L 592,796 L 592,800 L 628,800 L 628,796 L 632,800 L 628,792 L 624,784 L 612,764 L 616,760 L 616,752 L 648,720 L 660,704 L 664,696 L 668,692 L 676,692 L 680,696 L 680,700 L 688,700 L 688,692 L 680,684 L 664,684 L 656,692 L 644,712 L 636,720 L 628,728 L 620,732 L 612,728 L 612,704 L 616,700 L 620,688 L 620,680 L 608,668 L 608,660 L 600,648 L 580,648 L 576,652 L 544,652 L 540,660 L 544,664 L 584,664 L 588,676 L 584,688 L 576,684 L 532,680 L 512,648 L 520,648 L 504,620 L 504,652 L 504,648 L 524,680 L 520,680 L 524,688 L 528,688 L 548,720 L 556,716 L 548,704 L 544,704 L 544,700 L 536,688 L 556,692 L 584,708 L 584,748 L 560,764 L 556,764 L 548,776 L 548,780 L 540,792 L 524,792 L 520,796 L 520,800 z "
     style="fill:#000000;fill-opacity:1;fill-rule:nonzero;stroke:none" />
  <path
     id="path409"
     d="M 600,600 L 800,600 L 800,800 L 600,800 L 600,600 z "
     style="fill:none;stroke:#000000;stroke-width:0.40000001;stroke-linecap:square;stroke-linejoin:miter;stroke-miterlimit:10;stroke-opacity:1" />
  <path
     id="path411"
     d="M 700,800 L 800,800 L 800,700"
     style="fill:#b3b3ff;fill-opacity:1;fill-rule:nonzero;stroke:none" />
  <path
     id="path413"
     d="M 700,800 L 600,800 L 600,700"
     style="fill:#b3ffff;fill-opacity:1;fill-rule:nonzero;stroke:none" />
  <path
     id="path415"
     d="M 800,600 L 1000,600 L 1000,800 L 800,800 L 800,600 z "
     style="fill:none;stroke:#000000;stroke-width:0.40000001;stroke-linecap:square;stroke-linejoin:miter;stroke-miterlimit:10;stroke-opacity:1" />
  <path
     id="path417"
     d="M 900,800 L 1000,800 L 1000,700"
     style="fill:#b3b3ff;fill-opacity:1;fill-rule:nonzero;stroke:none" />
  <path
     id="path419"
     d="M 900,800 L 800,800 L 800,700"
     style="fill:#b3ffff;fill-opacity:1;fill-rule:nonzero;stroke:none" />
  <path
     id="path421"
     d="M 1000,600 L 1200,600 L 1200,800 L 1000,800 L 1000,600 z "
     style="fill:none;stroke:#000000;stroke-width:0.40000001;stroke-linecap:square;stroke-linejoin:miter;stroke-miterlimit:10;stroke-opacity:1" />
  <path
     id="path423"
     d="M 1100,800 L 1200,800 L 1200,700"
     style="fill:#b3b3ff;fill-opacity:1;fill-rule:nonzero;stroke:none" />
  <path
     id="path425"
     d="M 1100,800 L 1000,800 L 1000,700"
     style="fill:#b3ffff;fill-opacity:1;fill-rule:nonzero;stroke:none" />
</svg>
