<?xml version="1.0" encoding="UTF-8" standalone="no"?>
<!DOCTYPE svg PUBLIC "-//W3C//DTD SVG 20010904//EN"
"http://www.w3.org/TR/2001/REC-SVG-20010904/DTD/svg10.dtd"
[
 <!ATTLIST svg
  xmlns:xlink CDATA #FIXED "http://www.w3.org/1999/xlink">
]>
<!-- Created with Sodipodi ("http://www.sodipodi.com/") -->
<svg
   xmlns="http://www.w3.org/2000/svg"
   xmlns:xlink="http://www.w3.org/1999/xlink"
   version="1"
   x="0"
   y="0"
   width="744.094"
   height="1052.36"
   id="svg1">
  <defs
     id="defs3">
    <defs
       id="defs125">
      <path
         d="M 180 100 L 180 20 L 180 50 L 170 30 L 160 30 L 160 40 L 180 50 L 190 30 L 190 40 L 180 50 L 180 70 L 170 50 L 160 50 L 160 60 L 180 70 L 190 50 L 200 50 L 180 70 M 250 100 L 250 0 L 250 20 L 240 0 L 230 0 L 230 10 L 250 20 L 250 30 L 260 10 L 270 10 L 270 20 L 250 30 L 250 40 L 240 20 L 230 20 L 230 30 L 250 40 L 250 50 L 260 30 L 270 30 L 270 40 L 250 50 L 250 50 L 240 40 L 230 40 L 230 50 L 250 60 L 250 80 L 240 60 L 230 60 L 230 70 L 250 80 M 320 100 L 320 30 L 320 50 L 310 30 L 300 30 L 300 40 L 320 50 L 320 60 L 330 40 L 340 40 L 340 50 L 320 60 L 320 70 L 310 50 L 300 50 L 300 60 L 320 70 L 320 80 L 330 60 L 340 60 L 340 70 L 320 80 "
         id="f" />
      <path
         d="M 125 200 L 375 200 L 475 -50 L 375 -300 L 125 -300 L 25 -50 L 125 200 M 120 100 L 200 0 L 225 45 M 200 85 L 300 -50 L 400 80 M 300 -50 L 250 56 M 300 -50 L 270 40 M 300 -50 L 275 25 "
         id="h" />
      <path
         d="M 125 200 L 375 200 L 475 -50 L 375 -300 L 125 -300 L 25 -50 L 125 200 M 120 100 L 200 0 L 225 45 M 200 5 L 200 35 M 200 85 L 275 -20 L 325 -30 L 400 80 M 285 -20 L 250 56 M 295 -20 L 270 40 M 300 -30 L 275 25 M 310 -30 L 300 0 M 320 -30 L 340 20 M 315 -50 L 250 -50 M 230 -50 L 130 -50 M 285 -35 L 85 -35 M 275 -23 L 120 -23 M 270 -10 L 240 -10 M 220 -10 L 100 -10 "
         id="v" />
      <path
         d="M 180 100 L 180 60 M 190 100 L 190 70 M 210 100 L 210 50 M 220 100 L 220 70 M 220 60 L 220 50 M 240 100 L 240 60 M 250 100 L 250 30 M 270 100 L 270 60 M 290 100 L 290 60 M 320 100 L 320 40 "
         id="p" />
      <path
         d="M 125 40 L 220 35 L 320 40 M 125 50 L 320 50 M 145 60 L 310 60 M 150 70 L 220 70 M 135 80 L 275 80 M 145 100 L 220 90 L 275 100 "
         id="u" />
      <path
         d="M 170 90 L 230 30 L 350 30 L 350 40 L 290 100 L 170 100 L 170 90 "
         id="q" />
      <path
         d="M 170 90 L 230 30 L 350 30 L 350 40 L 290 100 L 170 100 L 170 90 M 170 90 L 290 90 L 350 30 M 190 100 L 190 90 L 250 30 M 210 100 L 210 90 L 270 30 M 230 100 L 230 90 L 290 30 M 250 100 L 250 90 L 310 30 M 270 100 L 270 90 L 330 30 "
         id="z" />
      <path
         d="M 170 100 L 165 80 L 167 80 L 170 90 L 170 70 L 172 72 L 170 100 M 200 100 L 200 80 L 190 70 L 190 60 L 190 70 L 200 60 M 200 90 L 230 70 M 230 100 L 240 80 M 250 100 L 250 80 L 270 70 L 255 80 L 250 70 L 260 60 M 270 100 L 280 70 M 310 100 L 310 80 L 300 80 L 300 100 L 310 100 M 310 85 L 320 85 L 330 75 L 330 70 L 310 50 L 300 50 L 290 60 L 285 80 L 290 85 L 300 85 M 310 75 L 310 70 L 320 70 L 310 75 M 345 100 L 345 80 "
         id="e" />
      <path
         d="M 170 100 L 325 100 M 185 100 L 175 40 L 180 40 L 190 100 M 170 40 L 165 45 L 160 35 L 160 25 L 165 20 L 175 10 L 185 10 L 185 15 L 195 25 L 195 50 L 185 40 L 175 40 M 185 75 L 190 75 L 190 70 M 215 100 L 210 90 L 215 55 L 215 90 L 220 100 M 215 90 L 225 80 M 245 100 L 245 80 L 240 70 L 250 60 L 250 50 M 240 70 L 235 65 L 235 55 L 230 50 L 230 35 M 265 100 L 260 95 L 260 80 L 265 60 L 260 40 L 265 40 L 275 65 L 270 65 L 265 80 L 265 95 L 270 100 L 265 100 M 255 35 L 255 40 L 250 30 L 250 40 L 240 40 L 245 35 L 245 25 L 250 15 L 255 15 L 255 5 L 265 5 L 265 15 L 270 10 L 280 10 L 280 15 L 285 20 L 285 25 L 295 25 L 295 35 L 285 45 L 280 35 L 260 35 M 305 100 L 305 85 L 310 75 L 310 70 L 302 65 L 300 45 L 305 60 L 315 65 L 320 50 L 320 35 L 315 15 L 320 15 L 325 35 L 325 50 L 310 85 L 310 100 L 310 100 "
         id="b" />
      <path
         d="M 170 40 L 165 45 L 160 35 L 160 25 L 165 20 L 175 10 L 185 10 L 185 15 L 195 25 L 195 50 L 185 40 L 175 40 "
         id="/1" />
      <path
         d="M 255 35 L 255 40 L 250 30 L 250 40 L 240 40 L 245 35 L 245 25 L 250 15 L 255 15 L 255 5 L 265 5 L 265 15 L 270 10 L 280 10 L 280 15 L 285 20 L 285 25 L 295 25 L 295 35 L 285 45 L 280 35 L 260 35 "
         id="/2" />
      <path
         d="M 150 90 L 150 80 L 220 50 L 280 50 L 350 80 L 350 80 M 220 50 L 220 60 M 280 50 L 280 60 M 150 100 L 180 200 L 180 200 L 350 100 L 350 90 L 280 60 L 220 60 L 150 90 L 150 100 "
         id="j" />
      <path
         d="M 150 90 L 150 80 L 220 50 L 280 50 L 350 80 L 350 80 M 220 50 L 220 60 M 280 50 L 280 60 M 150 100 L 180 200 L 180 200 L 350 100 L 350 90 L 280 60 L 220 60 L 150 90 L 150 100 "
         id="i" />
      <path
         d="M 40 142 L 30 144 L 20 152 L 18 160 L 18 170 L 22 176 L 34 182 M 50 144 L 60 148 L 68 154 L 72 162 L 70 170 L 66 178 L 60 184 L 50 186 M 54 150 L 40 148 L 36 148 L 30 154 L 26 158 L 26 164 L 30 170 L 36 174 L 40 174 M 56 154 L 60 158 L 62 164 L 62 172 L 58 178 L 54 180 L 46 180 M 44 154 L 40 154 L 36 156 L 34 160 L 34 164 L 38 168 L 42 170 L 46 170 L 50 168 L 52 164 L 52 162 M 46 158 L 50 158 L 54 160 L 56 164 L 56 168 L 54 172 L 48 174 "
         id="w" />
      <path
         d="M 160 100 L 340 100 L 340 80 L 310 60 L 320 70 L 290 70 L 290 65 L 305 65 L 305 55 L 290 55 L 290 50 L 310 50 L 330 70 M 290 70 L 270 70 L 270 80 L 260 80 L 260 90 L 250 90 L 250 80 L 240 80 L 250 85 L 240 85 L 240 80 L 245 85 L 230 85 L 230 80 L 225 80 L 225 70 L 235 70 L 230 65 L 225 65 L 225 50 L 220 50 L 220 100 L 220 80 L 210 80 L 210 70 L 200 70 L 200 100 L 195 100 L 195 70 L 195 80 L 210 80 L 190 80 L 185 85 L 180 80 L 180 90 L 175 90 L 175 70 L 170 70 L 170 100 L 165 100 L 170 80 L 160 90 L 160 100 "
         id="r" />
      <path
         d="M 160 100 L 340 100 M 340 100 L 340 80 L 320 60 L 300 50 L 300 55 L 310 60 L 320 70 L 320 100 L 340 100 M 190 60 L 160 90 L 160 100 L 180 100 L 180 80 L 190 70 L 200 70 L 200 65 L 195 65 L 195 60 L 190 60 M 210 70 L 220 80 L 220 100 L 230 100 L 230 65 L 235 55 L 220 55 L 220 60 L 215 60 L 215 65 L 210 65 L 210 70 M 240 100 L 240 65 M 240 45 L 240 40 M 260 100 L 260 40 M 240 100 L 260 75 L 240 75 L 260 50 L 240 50 M 260 75 L 275 100 M 305 100 L 305 65 M 305 50 L 305 40 M 325 60 L 325 40 M 305 100 L 315 90 M 315 75 L 305 75 L 310 70 M 325 50 L 305 50 M 285 100 L 305 75 "
         id="" />
      <path
         d="M 160 100 L 340 100 M 340 100 L 340 80 L 320 60 L 280 40 L 230 40 L 190 60 L 160 90 L 160 100 L 180 100 L 180 80 L 190 70 L 210 70 L 220 80 L 220 100 L 230 100 L 230 60 L 240 50 L 280 50 L 310 60 L 320 70 L 320 100 L 340 100 M 185 85 L 215 85 M 235 80 L 315 80 M 240 95 L 240 60 M 250 95 L 250 60 M 260 95 L 260 60 M 270 95 L 270 60 M 280 95 L 280 60 M 290 95 L 290 60 M 300 95 L 300 65 M 310 95 L 310 70 "
         id="n" />
      <path
         d="M 36 196 L 35 194 L 37 194 L 35 192 L 35 186 L 36 184 L 38 183 L 40 183 L 41 185 L 41 192 L 39 194 L 41 194 L 40 196 L 53 196 L 52 194 L 48 192 L 48 184 L 47 182 L 52 179 L 54 175 L 56 165 L 58 163 L 60 162 L 62 164 L 63 166 L 64 164 L 66 163 L 65 162 L 65 161 L 67 158 L 64 159 L 63 159 L 63 156 L 60 158 L 58 158 L 54 160 L 49 171 L 47 174 L 44 176 L 45 173 L 47 172 L 48 170 L 46 170 L 47 168 L 49 167 L 50 165 L 47 164 L 49 161 L 47 160 L 47 159 L 51 158 L 49 156 L 49 154 L 50 151 L 47 151 L 46 149 L 44 150 L 43 148 L 42 150 L 40 150 L 38 152 L 34 153 L 33 152 L 32 154 L 31 153 L 30 155 L 29 156 L 30 158 L 32 159 L 38 158 L 37 160 L 32 161 L 30 162 L 29 161 L 26 161 L 20 162 L 17 161 L 17 149 L 15 149 L 15 161 L 14 161 L 13 162 L 13 164 L 12 165 L 12 166 L 13 167 L 13 168 L 14 169 L 15 169 L 15 185 L 17 185 L 17 169 L 19 167 L 27 167 L 30 166 L 33 167 L 32 168 L 32 171 L 33 172 L 35 175 L 35 177 L 31 181 L 29 185 L 29 191 L 25 193 L 23 195 L 23 196 M 42 154 L 39 154 L 42 152 L 42 154 M 15 186 L 15 188 L 17 188 L 17 186 L 15 186 M 15 189 L 15 192 L 16 195 L 17 191 L 17 189 L 15 189 M 16 125 L 14 128 L 15 130 L 17 130 L 18 128 L 16 125 M 15 131 L 15 132 L 5 132 L 5 134 L 15 134 L 15 135 L 6 135 L 6 143 L 5 145 L 3 147 L 2 149 L 7 149 L 8 147 L 8 149 L 19 149 L 20 147 L 22 147 L 21 149 L 22 149 L 25 145 L 26 142 L 26 135 L 17 135 L 17 134 L 27 134 L 27 132 L 17 132 L 17 131 L 15 131 "
         id="path143" />
      <path
         d="M 10 200 L 30 200 L 30 198 L 32 200 L 30 196 L 30 194 L 32 190 L 40 182 L 46 180 L 50 182 L 56 196 L 48 196 L 46 198 L 46 200 L 64 200 L 64 198 L 66 200 L 64 196 L 62 192 L 56 182 L 58 180 L 58 176 L 74 160 L 80 152 L 82 148 L 84 146 L 88 146 L 90 148 L 90 150 L 94 150 L 94 146 L 90 142 L 82 142 L 78 146 L 72 156 L 68 160 L 64 164 L 60 166 L 56 164 L 56 152 L 58 150 L 60 144 L 60 140 L 54 134 L 54 130 L 50 124 L 40 124 L 38 126 L 22 126 L 20 130 L 22 132 L 42 132 L 44 138 L 42 144 L 38 142 L 16 140 L 6 124 L 10 124 L -2 110 L -2 126 L 2 124 L 12 140 L 10 140 L 12 144 L 14 144 L 24 160 L 28 158 L 24 152 L 22 152 L 22 150 L 18 144 L 28 146 L 42 154 L 42 174 L 30 182 L 28 182 L 24 188 L 24 190 L 20 196 L 12 196 L 10 198 L 10 200 "
         id="l" />
    </defs>
  </defs>
  <g
     transform="matrix(-0.492404,-0.0868241,0.0868241,-0.492404,222.692,494.168)"
     style="font-size:12;stroke-width:2pt;"
     id="g145">
    <rect
       width="100"
       height="100"
       x="100"
       y="0"
       style="fill:#87ceeb;stroke:#ffff00;"
       id="rect146" />
    <use
       id="use147"
       x="100"
       y="0"
       width="744.094"
       height="1052.36" />
    <rect
       width="100"
       height="100"
       x="100"
       y="100"
       style="fill:#87ceeb;stroke:#ffff00;"
       id="rect148" />
    <use
       id="use149"
       x="100"
       y="100"
       width="744.094"
       height="1052.36" />
    <rect
       width="100"
       height="100"
       x="100"
       y="200"
       style="fill:#87ceeb;stroke:#ffff00;"
       id="rect150" />
    <use
       id="use151"
       x="100"
       y="200"
       width="744.094"
       height="1052.36" />
    <rect
       width="100"
       height="100"
       x="100"
       y="300"
       style="fill:#87ceeb;stroke:#ffff00;"
       id="rect152" />
    <use
       id="use153"
       x="100"
       y="300"
       width="744.094"
       height="1052.36" />
    <rect
       width="100"
       height="100"
       x="100"
       y="400"
       style="fill:#87ceeb;stroke:#ffff00;"
       id="rect154" />
    <use
       id="use155"
       x="100"
       y="400"
       width="744.094"
       height="1052.36" />
    <rect
       width="100"
       height="100"
       x="100"
       y="500"
       style="fill:#87ceeb;stroke:#ffff00;"
       id="rect156" />
    <use
       id="use157"
       x="100"
       y="500"
       width="744.094"
       height="1052.36" />
  </g>
</svg>
