<?xml version="1.0" encoding="UTF-8" standalone="no"?>
<svg
   xmlns:dc="http://purl.org/dc/elements/1.1/"
   xmlns:cc="http://web.resource.org/cc/"
   xmlns:rdf="http://www.w3.org/1999/02/22-rdf-syntax-ns#"
   xmlns:svg="http://www.w3.org/2000/svg"
   xmlns="http://www.w3.org/2000/svg"
   xmlns:sodipodi="http://inkscape.sourceforge.net/DTD/sodipodi-0.dtd"
   xmlns:inkscape="http://www.inkscape.org/namespaces/inkscape"
   version="1.0"
   width="200"
   height="200"
   viewBox="-100 0 200 200"
   id="svg2"
   sodipodi:version="0.32"
   inkscape:version="0.43"
   sodipodi:docname="fertile.svg"
   sodipodi:docbase="/home/ralexand/source/lizards/cxx">
  <metadata
     id="metadata9">
    <rdf:RDF>
      <cc:Work
         rdf:about="">
        <dc:format>image/svg+xml</dc:format>
        <dc:type
           rdf:resource="http://purl.org/dc/dcmitype/StillImage" />
      </cc:Work>
    </rdf:RDF>
  </metadata>
  <defs
     id="defs7" />
  <sodipodi:namedview
     inkscape:cy="103.10997"
     inkscape:cx="68.543507"
     inkscape:zoom="2.7439965"
     inkscape:window-height="864"
     inkscape:window-width="989"
     inkscape:pageshadow="2"
     inkscape:pageopacity="0.0"
     borderopacity="1.0"
     bordercolor="#666666"
     pagecolor="#ffffff"
     id="base"
     showguides="true"
     inkscape:guide-bbox="true"
     inkscape:window-x="64"
     inkscape:window-y="26"
     inkscape:current-layer="svg2" />
  <g
     id="g2264"
     transform="matrix(0.23829,0,0,0.440823,2.514055,-0.759372)">
    <path
       id="path1310"
       d="M -63.624965,188.40385 C -63.710862,183.5077 -59.928547,60.634781 -60.698131,53.626326 L -62.910621,60.105264 C -63.238129,87.312128 -60.578893,103.59761 -66.334526,188.01731 C -64.433761,190.16111 -66.244836,189.30577 -63.624965,188.40385 z "
       style="fill:#eeda18;fill-opacity:1;fill-rule:nonzero;stroke:#2bea21;stroke-width:0.5;stroke-linecap:butt;stroke-linejoin:miter;stroke-miterlimit:4;stroke-opacity:1"
       sodipodi:nodetypes="ccccc" />
    <path
       d="M -64.5711,151.55384 C -67.663408,154.58888 -77.838462,142.40115 -78.869231,130.93846 C -71.699061,138.2917 -61.958755,142.88243 -64.5711,151.55384 z M -81.575,105.04039 C -68.915492,114.36846 -61.514231,127.34279 -63.260533,131.61932 C -63.912583,133.21612 -80.163265,128.11458 -81.575,105.04039 z M -77.065385,92.671154 C -69.880634,96.99235 -56.529983,114.43727 -64.011503,112.10481 C -68.348153,110.75281 -77.000341,101.04615 -77.065385,92.671154 z M -45.612402,140.95183 C -56.206096,140.27644 -64.563245,153.4124 -63.345166,156.45759 C -60.967472,159.63163 -45.447661,146.67813 -45.612402,140.95183 z M -62.634616,136.35 L -62.399029,144.35298 C -51.907578,140.31281 -49.489369,134.15582 -46.643171,127.97121 C -52.143373,127.97121 -62.504755,132.32428 -62.634616,136.35 z M -62.634615,119.21346 C -60.287675,123.59061 -52.777671,122.14182 -43.565385,108.51923 C -58.589628,105.95035 -60.747154,115.06845 -62.634615,119.21346 z M -60.315386,94.024034 L -60.808663,102.02702 C -50.317212,97.986846 -45.712412,88.185536 -42.866214,82.000926 C -48.366416,82.000926 -60.185525,89.998314 -60.315386,94.024034 z M -44.081952,65.716916 C -54.273155,66.778499 -62.014316,78.032502 -60.187722,81.049603 C -57.835168,84.935466 -44.016908,74.091916 -44.081952,65.716916 z M -77.612086,67.308441 C -70.427335,71.629637 -60.236089,85.022009 -60.416813,92.856602 C -65.664832,102.84107 -78.347396,78.884852 -77.612086,67.308441 z M -72.502454,58.730689 C -68.627106,60.644405 -55.401685,77.938199 -62.883205,75.605739 C -67.219853,74.253733 -72.43741,67.105685 -72.502454,58.730689 z "
       style="fill:#eeda18;fill-opacity:1;fill-rule:nonzero;stroke:#2bea21;stroke-width:0.5;stroke-linecap:butt;stroke-linejoin:miter;stroke-miterlimit:4;stroke-opacity:1"
       id="path2249"
       sodipodi:nodetypes="ccccsccsccccccccccccccccscccccsc" />
  </g>
  <g
     id="g1455"
     transform="matrix(0.563151,0,0,0.619122,23.85409,64.24327)">
    <path
       id="path2270"
       d="M 18.474697,170.33655 C 18.3888,165.4404 21.806683,42.931912 21.037099,35.923457 L 18.095745,42.037963 C 17.768237,69.244827 21.520769,85.530309 15.765136,169.95001 C 17.665901,172.09381 15.854826,171.23847 18.474697,170.33655 z "
       style="fill:#eeda18;fill-opacity:1;fill-rule:nonzero;stroke:#2bea21;stroke-width:0.5;stroke-linecap:butt;stroke-linejoin:miter;stroke-miterlimit:4;stroke-opacity:1"
       sodipodi:nodetypes="ccccc" />
    <path
       sodipodi:nodetypes="ccccsccsccccccccccccccccscccccsc"
       d="M 16.799698,132.39324 C 13.70739,135.42828 3.5323359,123.24055 2.5015669,111.77786 C 9.671737,119.1311 19.412043,123.72183 16.799698,132.39324 z M -0.20420199,85.879793 C 12.455306,95.207863 19.856567,108.18219 18.110265,112.45872 C 17.458215,114.05552 1.207533,108.95398 -0.20420199,85.879793 z M 4.3054129,73.510557 C 11.490164,77.831753 24.840815,95.276673 17.359295,92.944213 C 13.022645,91.592213 4.3704569,81.885553 4.3054129,73.510557 z M 35.758396,121.79123 C 25.164702,121.11584 16.807553,134.2518 18.025632,137.29699 C 20.403326,140.47103 35.923137,127.51753 35.758396,121.79123 z M 18.736182,117.1894 L 18.971769,125.19238 C 29.46322,121.15221 31.881429,114.99522 34.727627,108.81061 C 29.227425,108.81061 18.866043,113.16368 18.736182,117.1894 z M 18.736183,100.05286 C 21.083123,104.43001 28.593127,102.98122 37.805413,89.358633 C 22.78117,86.789753 20.623644,95.907853 18.736183,100.05286 z M 21.055412,74.863437 L 20.562135,82.866423 C 31.053586,78.826249 35.658386,69.024939 38.504584,62.840329 C 33.004382,62.840329 21.185273,70.837717 21.055412,74.863437 z M 37.288846,46.556319 C 27.097643,47.617902 19.356482,58.871905 21.183076,61.889006 C 23.53563,65.774869 37.35389,54.931319 37.288846,46.556319 z M 3.7587119,48.147844 C 10.943463,52.46904 21.134709,65.861412 20.953985,73.696005 C 15.705966,83.680473 3.0234019,59.724255 3.7587119,48.147844 z M 8.8683439,39.570092 C 12.743692,41.483808 25.969113,58.777602 18.487593,56.445142 C 14.150945,55.093136 8.9333879,47.945088 8.8683439,39.570092 z "
       style="fill:#eeda18;fill-opacity:1;fill-rule:nonzero;stroke:#2bea21;stroke-width:0.5;stroke-linecap:butt;stroke-linejoin:miter;stroke-miterlimit:4;stroke-opacity:1"
       id="path2272" />
  </g>
  <g
     id="g1465"
     transform="matrix(0.423732,0,0,0.618486,8.614599,61.14838)">
    <path
       id="path2276"
       d="M -71.175564,181.99837 C -71.261461,177.10222 -68.20801,124.20024 -71.164185,46.856421 L -72.283379,50.055471 C -72.610887,77.262335 -68.129492,97.192137 -73.885125,181.61183 C -71.98436,183.75563 -73.795435,182.90029 -71.175564,181.99837 z "
       style="fill:#eeda18;fill-opacity:1;fill-rule:nonzero;stroke:#2bea21;stroke-width:0.5;stroke-linecap:butt;stroke-linejoin:miter;stroke-miterlimit:4;stroke-opacity:1"
       sodipodi:nodetypes="ccccc" />
    <path
       sodipodi:nodetypes="ccccsccsccccccccccccccccscccccsc"
       d="M -71.028403,145.14836 C -74.120711,148.1834 -87.940085,135.99567 -88.970854,124.53298 C -81.800684,131.88622 -68.416058,136.47695 -71.028403,145.14836 z M -91.676623,98.634917 C -79.017115,107.96298 -69.06483,119.84401 -70.811132,124.12054 C -71.463182,125.71734 -90.264888,121.7091 -91.676623,98.634917 z M -87.167008,86.265681 C -79.982257,90.586877 -63.351718,108.39622 -70.833238,106.06376 C -75.169888,104.71176 -87.101964,94.640677 -87.167008,86.265681 z M -55.714025,134.54635 C -66.307719,133.87096 -71.38498,147.00692 -70.166901,150.05211 C -67.789207,153.22615 -55.549284,140.27265 -55.714025,134.54635 z M -70.185215,128.48679 L -72.500652,137.9475 C -62.009201,133.90733 -59.590992,127.75034 -56.744794,121.56573 C -62.244996,121.56573 -70.055354,124.46107 -70.185215,128.48679 z M -70.185214,113.53684 C -67.838274,117.91399 -62.879294,115.73634 -53.667008,102.11375 C -68.691251,99.544874 -68.297753,109.39183 -70.185214,113.53684 z M -70.417009,87.618561 L -70.910286,95.621547 C -60.418835,91.581373 -55.814035,81.780063 -52.967837,75.595453 C -58.468039,75.595453 -70.287148,83.592841 -70.417009,87.618561 z M -54.183575,59.311443 C -64.374778,60.373026 -72.115939,71.627029 -70.289345,74.64413 C -67.936791,78.529993 -54.118531,67.686443 -54.183575,59.311443 z M -87.713709,60.902968 C -80.528958,65.224164 -70.337712,78.616536 -70.518436,86.451129 C -75.766455,96.435597 -88.449019,72.479379 -87.713709,60.902968 z M -82.604077,52.325216 C -78.728729,54.238932 -64.04558,73.354886 -71.5271,71.022426 C -75.863748,69.67042 -82.539033,60.700212 -82.604077,52.325216 z "
       style="fill:#eeda18;fill-opacity:1;fill-rule:nonzero;stroke:#2bea21;stroke-width:0.5;stroke-linecap:butt;stroke-linejoin:miter;stroke-miterlimit:4;stroke-opacity:1"
       id="path2278" />
  </g>
  <g
     id="g2280"
     transform="matrix(0.479627,0,0,0.655715,39.51769,10.86725)">
    <path
       id="path2282"
       d="M -62.896101,184.75953 C -61.159838,168.93042 -60.657411,59.541485 -61.426995,52.53303 L -63.275053,58.647536 C -63.602561,85.8544 -60.578893,103.59761 -66.334526,188.01731 C -64.433761,190.16111 -65.515972,185.66145 -62.896101,184.75953 z "
       style="fill:#eeda18;fill-opacity:1;fill-rule:nonzero;stroke:#2bea21;stroke-width:0.5;stroke-linecap:butt;stroke-linejoin:miter;stroke-miterlimit:4;stroke-opacity:1"
       sodipodi:nodetypes="ccccc" />
    <path
       d="M -64.5711,151.55384 C -67.663408,154.58888 -77.838462,142.40115 -78.869231,130.93846 C -71.699061,138.2917 -61.958755,142.88243 -64.5711,151.55384 z M -81.575,105.04039 C -68.915492,114.36846 -61.514231,127.34279 -63.260533,131.61932 C -63.912583,133.21612 -80.163265,128.11458 -81.575,105.04039 z M -77.065385,92.671154 C -69.880634,96.99235 -56.529983,114.43727 -64.011503,112.10481 C -68.348153,110.75281 -77.000341,101.04615 -77.065385,92.671154 z M -45.612402,140.95183 C -56.206096,140.27644 -64.563245,153.4124 -63.345166,156.45759 C -60.967472,159.63163 -45.447661,146.67813 -45.612402,140.95183 z M -62.634616,136.35 L -62.399029,144.35298 C -51.907578,140.31281 -49.489369,134.15582 -46.643171,127.97121 C -52.143373,127.97121 -62.504755,132.32428 -62.634616,136.35 z M -62.634615,119.21346 C -60.287675,123.59061 -52.777671,122.14182 -43.565385,108.51923 C -58.589628,105.95035 -60.747154,115.06845 -62.634615,119.21346 z M -60.315386,94.024034 L -60.808663,102.02702 C -50.317212,97.986846 -45.712412,88.185536 -42.866214,82.000926 C -48.366416,82.000926 -60.185525,89.998314 -60.315386,94.024034 z M -44.081952,65.716916 C -54.273155,66.778499 -62.014316,78.761366 -60.187722,81.778467 C -57.835168,85.66433 -44.016908,74.091916 -44.081952,65.716916 z M -77.612086,67.308441 C -70.427335,71.629637 -60.236089,85.022009 -60.416813,92.856602 C -65.664832,102.84107 -78.347396,78.884852 -77.612086,67.308441 z M -72.502454,58.730689 C -68.627106,60.644405 -56.494981,79.031495 -63.976501,76.699035 C -68.313149,75.347029 -72.43741,67.105685 -72.502454,58.730689 z "
       style="fill:#eeda18;fill-opacity:1;fill-rule:nonzero;stroke:#2bea21;stroke-width:0.5;stroke-linecap:butt;stroke-linejoin:miter;stroke-miterlimit:4;stroke-opacity:1"
       id="path2284"
       sodipodi:nodetypes="ccccsccsccccccccccccccccscccccsc" />
  </g>
  <g
     id="g1459"
     transform="matrix(0.442321,0,0,0.58269,90.42257,16.23342)">
    <path
       id="path1461"
       d="M -63.624965,188.40385 C -63.710862,183.5077 -59.928547,60.634781 -60.698131,53.626326 L -62.910621,60.105264 C -63.238129,87.312128 -60.578893,103.59761 -66.334526,188.01731 C -64.433761,190.16111 -66.244836,189.30577 -63.624965,188.40385 z "
       style="fill:#eeda18;fill-opacity:1;fill-rule:nonzero;stroke:#2bea21;stroke-width:0.5;stroke-linecap:butt;stroke-linejoin:miter;stroke-miterlimit:4;stroke-opacity:1"
       sodipodi:nodetypes="ccccc" />
    <path
       d="M -64.5711,151.55384 C -67.663408,154.58888 -77.838462,142.40115 -78.869231,130.93846 C -71.699061,138.2917 -61.958755,142.88243 -64.5711,151.55384 z M -81.575,105.04039 C -68.915492,114.36846 -61.514231,127.34279 -63.260533,131.61932 C -63.912583,133.21612 -80.163265,128.11458 -81.575,105.04039 z M -77.065385,92.671154 C -69.880634,96.99235 -56.529983,114.43727 -64.011503,112.10481 C -68.348153,110.75281 -77.000341,101.04615 -77.065385,92.671154 z M -45.612402,140.95183 C -56.206096,140.27644 -64.563245,153.4124 -63.345166,156.45759 C -60.967472,159.63163 -45.447661,146.67813 -45.612402,140.95183 z M -62.634616,136.35 L -62.399029,144.35298 C -51.907578,140.31281 -49.489369,134.15582 -46.643171,127.97121 C -52.143373,127.97121 -62.504755,132.32428 -62.634616,136.35 z M -62.634615,119.21346 C -60.287675,123.59061 -52.777671,122.14182 -43.565385,108.51923 C -58.589628,105.95035 -60.747154,115.06845 -62.634615,119.21346 z M -60.315386,94.024034 L -60.808663,102.02702 C -50.317212,97.986846 -45.712412,88.185536 -42.866214,82.000926 C -48.366416,82.000926 -60.185525,89.998314 -60.315386,94.024034 z M -44.081952,65.716916 C -54.273155,66.778499 -62.014316,78.032502 -60.187722,81.049603 C -57.835168,84.935466 -44.016908,74.091916 -44.081952,65.716916 z M -77.612086,67.308441 C -70.427335,71.629637 -60.236089,85.022009 -60.416813,92.856602 C -65.664832,102.84107 -78.347396,78.884852 -77.612086,67.308441 z M -72.502454,58.730689 C -68.627106,60.644405 -55.401685,77.938199 -62.883205,75.605739 C -67.219853,74.253733 -72.43741,67.105685 -72.502454,58.730689 z "
       style="fill:#eeda18;fill-opacity:1;fill-rule:nonzero;stroke:#2bea21;stroke-width:0.5;stroke-linecap:butt;stroke-linejoin:miter;stroke-miterlimit:4;stroke-opacity:1"
       id="path1463"
       sodipodi:nodetypes="ccccsccsccccccccccccccccscccccsc" />
  </g>
  <g
     id="g1469"
     transform="matrix(0.498129,0,0,0.576199,-55.05668,27.32743)">
    <path
       id="path1471"
       d="M 18.474697,170.33655 C 18.3888,165.4404 21.806683,42.931912 21.037099,35.923457 L 18.095745,42.037963 C 17.768237,69.244827 21.520769,85.530309 15.765136,169.95001 C 17.665901,172.09381 15.854826,171.23847 18.474697,170.33655 z "
       style="fill:#eeda18;fill-opacity:1;fill-rule:nonzero;stroke:#2bea21;stroke-width:0.5;stroke-linecap:butt;stroke-linejoin:miter;stroke-miterlimit:4;stroke-opacity:1"
       sodipodi:nodetypes="ccccc" />
    <path
       sodipodi:nodetypes="ccccsccsccccccccccccccccscccccsc"
       d="M 16.799698,132.39324 C 13.70739,135.42828 3.5323359,123.24055 2.5015669,111.77786 C 9.671737,119.1311 19.412043,123.72183 16.799698,132.39324 z M -0.20420199,85.879793 C 12.455306,95.207863 19.856567,108.18219 18.110265,112.45872 C 17.458215,114.05552 1.207533,108.95398 -0.20420199,85.879793 z M 4.3054129,73.510557 C 11.490164,77.831753 24.840815,95.276673 17.359295,92.944213 C 13.022645,91.592213 4.3704569,81.885553 4.3054129,73.510557 z M 35.758396,121.79123 C 25.164702,121.11584 16.807553,134.2518 18.025632,137.29699 C 20.403326,140.47103 35.923137,127.51753 35.758396,121.79123 z M 18.736182,117.1894 L 18.971769,125.19238 C 29.46322,121.15221 31.881429,114.99522 34.727627,108.81061 C 29.227425,108.81061 18.866043,113.16368 18.736182,117.1894 z M 18.736183,100.05286 C 21.083123,104.43001 28.593127,102.98122 37.805413,89.358633 C 22.78117,86.789753 20.623644,95.907853 18.736183,100.05286 z M 21.055412,74.863437 L 20.562135,82.866423 C 31.053586,78.826249 35.658386,69.024939 38.504584,62.840329 C 33.004382,62.840329 21.185273,70.837717 21.055412,74.863437 z M 37.288846,46.556319 C 27.097643,47.617902 19.356482,58.871905 21.183076,61.889006 C 23.53563,65.774869 37.35389,54.931319 37.288846,46.556319 z M 3.7587119,48.147844 C 10.943463,52.46904 21.134709,65.861412 20.953985,73.696005 C 15.705966,83.680473 3.0234019,59.724255 3.7587119,48.147844 z M 8.8683439,39.570092 C 12.743692,41.483808 25.969113,58.777602 18.487593,56.445142 C 14.150945,55.093136 8.9333879,47.945088 8.8683439,39.570092 z "
       style="fill:#eeda18;fill-opacity:1;fill-rule:nonzero;stroke:#2bea21;stroke-width:0.5;stroke-linecap:butt;stroke-linejoin:miter;stroke-miterlimit:4;stroke-opacity:1"
       id="path1473" />
  </g>
  <g
     id="g1475"
     transform="matrix(0.442321,0,0,0.58269,-40.77294,66.88948)">
    <path
       id="path1477"
       d="M -63.624965,188.40385 C -63.710862,183.5077 -59.928547,60.634781 -60.698131,53.626326 L -62.910621,60.105264 C -63.238129,87.312128 -60.578893,103.59761 -66.334526,188.01731 C -64.433761,190.16111 -66.244836,189.30577 -63.624965,188.40385 z "
       style="fill:#eeda18;fill-opacity:1;fill-rule:nonzero;stroke:#2bea21;stroke-width:0.5;stroke-linecap:butt;stroke-linejoin:miter;stroke-miterlimit:4;stroke-opacity:1"
       sodipodi:nodetypes="ccccc" />
    <path
       d="M -64.5711,151.55384 C -67.663408,154.58888 -77.838462,142.40115 -78.869231,130.93846 C -71.699061,138.2917 -61.958755,142.88243 -64.5711,151.55384 z M -81.575,105.04039 C -68.915492,114.36846 -61.514231,127.34279 -63.260533,131.61932 C -63.912583,133.21612 -80.163265,128.11458 -81.575,105.04039 z M -77.065385,92.671154 C -69.880634,96.99235 -56.529983,114.43727 -64.011503,112.10481 C -68.348153,110.75281 -77.000341,101.04615 -77.065385,92.671154 z M -45.612402,140.95183 C -56.206096,140.27644 -64.563245,153.4124 -63.345166,156.45759 C -60.967472,159.63163 -45.447661,146.67813 -45.612402,140.95183 z M -62.634616,136.35 L -62.399029,144.35298 C -51.907578,140.31281 -49.489369,134.15582 -46.643171,127.97121 C -52.143373,127.97121 -62.504755,132.32428 -62.634616,136.35 z M -62.634615,119.21346 C -60.287675,123.59061 -52.777671,122.14182 -43.565385,108.51923 C -58.589628,105.95035 -60.747154,115.06845 -62.634615,119.21346 z M -60.315386,94.024034 L -60.808663,102.02702 C -50.317212,97.986846 -45.712412,88.185536 -42.866214,82.000926 C -48.366416,82.000926 -60.185525,89.998314 -60.315386,94.024034 z M -44.081952,65.716916 C -54.273155,66.778499 -62.014316,78.032502 -60.187722,81.049603 C -57.835168,84.935466 -44.016908,74.091916 -44.081952,65.716916 z M -77.612086,67.308441 C -70.427335,71.629637 -60.236089,85.022009 -60.416813,92.856602 C -65.664832,102.84107 -78.347396,78.884852 -77.612086,67.308441 z M -72.502454,58.730689 C -68.627106,60.644405 -55.401685,77.938199 -62.883205,75.605739 C -67.219853,74.253733 -72.43741,67.105685 -72.502454,58.730689 z "
       style="fill:#eeda18;fill-opacity:1;fill-rule:nonzero;stroke:#2bea21;stroke-width:0.5;stroke-linecap:butt;stroke-linejoin:miter;stroke-miterlimit:4;stroke-opacity:1"
       id="path1479"
       sodipodi:nodetypes="ccccsccsccccccccccccccccscccccsc" />
  </g>
  <g
     id="g1487"
     transform="matrix(0.507384,0,0,0.649567,114.5146,59.49327)">
    <path
       id="path1489"
       d="M -63.624965,188.40385 C -63.710862,183.5077 -59.928547,60.634781 -60.698131,53.626326 L -62.910621,60.105264 C -63.238129,87.312128 -60.578893,103.59761 -66.334526,188.01731 C -64.433761,190.16111 -66.244836,189.30577 -63.624965,188.40385 z "
       style="fill:#eeda18;fill-opacity:1;fill-rule:nonzero;stroke:#2bea21;stroke-width:0.5;stroke-linecap:butt;stroke-linejoin:miter;stroke-miterlimit:4;stroke-opacity:1"
       sodipodi:nodetypes="ccccc" />
    <path
       d="M -64.5711,151.55384 C -67.663408,154.58888 -77.838462,142.40115 -78.869231,130.93846 C -71.699061,138.2917 -61.958755,142.88243 -64.5711,151.55384 z M -81.575,105.04039 C -68.915492,114.36846 -61.514231,127.34279 -63.260533,131.61932 C -63.912583,133.21612 -80.163265,128.11458 -81.575,105.04039 z M -77.065385,92.671154 C -69.880634,96.99235 -56.529983,114.43727 -64.011503,112.10481 C -68.348153,110.75281 -77.000341,101.04615 -77.065385,92.671154 z M -45.612402,140.95183 C -56.206096,140.27644 -64.563245,153.4124 -63.345166,156.45759 C -60.967472,159.63163 -45.447661,146.67813 -45.612402,140.95183 z M -62.634616,136.35 L -62.399029,144.35298 C -51.907578,140.31281 -49.489369,134.15582 -46.643171,127.97121 C -52.143373,127.97121 -62.504755,132.32428 -62.634616,136.35 z M -62.634615,119.21346 C -60.287675,123.59061 -52.777671,122.14182 -43.565385,108.51923 C -58.589628,105.95035 -60.747154,115.06845 -62.634615,119.21346 z M -60.315386,94.024034 L -60.808663,102.02702 C -50.317212,97.986846 -45.712412,88.185536 -42.866214,82.000926 C -48.366416,82.000926 -60.185525,89.998314 -60.315386,94.024034 z M -44.081952,65.716916 C -54.273155,66.778499 -62.014316,78.032502 -60.187722,81.049603 C -57.835168,84.935466 -44.016908,74.091916 -44.081952,65.716916 z M -77.612086,67.308441 C -70.427335,71.629637 -60.236089,85.022009 -60.416813,92.856602 C -65.664832,102.84107 -78.347396,78.884852 -77.612086,67.308441 z M -72.502454,58.730689 C -68.627106,60.644405 -55.401685,77.938199 -62.883205,75.605739 C -67.219853,74.253733 -72.43741,67.105685 -72.502454,58.730689 z "
       style="fill:#eeda18;fill-opacity:1;fill-rule:nonzero;stroke:#2bea21;stroke-width:0.5;stroke-linecap:butt;stroke-linejoin:miter;stroke-miterlimit:4;stroke-opacity:1"
       id="path1491"
       sodipodi:nodetypes="ccccsccsccccccccccccccccscccccsc" />
  </g>
  <g
     id="g1493"
     transform="matrix(0.274877,0,0,0.388394,34.31351,13.25776)">
    <path
       id="path1495"
       d="M 18.474697,170.33655 C 18.3888,165.4404 21.806683,42.931912 21.037099,35.923457 L 18.095745,42.037963 C 17.768237,69.244827 21.520769,85.530309 15.765136,169.95001 C 17.665901,172.09381 15.854826,171.23847 18.474697,170.33655 z "
       style="fill:#eeda18;fill-opacity:1;fill-rule:nonzero;stroke:#2bea21;stroke-width:0.5;stroke-linecap:butt;stroke-linejoin:miter;stroke-miterlimit:4;stroke-opacity:1"
       sodipodi:nodetypes="ccccc" />
    <path
       sodipodi:nodetypes="ccccsccsccccccccccccccccscccccsc"
       d="M 16.799698,132.39324 C 13.70739,135.42828 3.5323359,123.24055 2.5015669,111.77786 C 9.671737,119.1311 19.412043,123.72183 16.799698,132.39324 z M -0.20420199,85.879793 C 12.455306,95.207863 19.856567,108.18219 18.110265,112.45872 C 17.458215,114.05552 1.207533,108.95398 -0.20420199,85.879793 z M 4.3054129,73.510557 C 11.490164,77.831753 24.840815,95.276673 17.359295,92.944213 C 13.022645,91.592213 4.3704569,81.885553 4.3054129,73.510557 z M 35.758396,121.79123 C 25.164702,121.11584 16.807553,134.2518 18.025632,137.29699 C 20.403326,140.47103 35.923137,127.51753 35.758396,121.79123 z M 18.736182,117.1894 L 18.971769,125.19238 C 29.46322,121.15221 31.881429,114.99522 34.727627,108.81061 C 29.227425,108.81061 18.866043,113.16368 18.736182,117.1894 z M 18.736183,100.05286 C 21.083123,104.43001 28.593127,102.98122 37.805413,89.358633 C 22.78117,86.789753 20.623644,95.907853 18.736183,100.05286 z M 21.055412,74.863437 L 20.562135,82.866423 C 31.053586,78.826249 35.658386,69.024939 38.504584,62.840329 C 33.004382,62.840329 21.185273,70.837717 21.055412,74.863437 z M 37.288846,46.556319 C 27.097643,47.617902 19.356482,58.871905 21.183076,61.889006 C 23.53563,65.774869 37.35389,54.931319 37.288846,46.556319 z M 3.7587119,48.147844 C 10.943463,52.46904 21.134709,65.861412 20.953985,73.696005 C 15.705966,83.680473 3.0234019,59.724255 3.7587119,48.147844 z M 8.8683439,39.570092 C 12.743692,41.483808 25.969113,58.777602 18.487593,56.445142 C 14.150945,55.093136 8.9333879,47.945088 8.8683439,39.570092 z "
       style="fill:#eeda18;fill-opacity:1;fill-rule:nonzero;stroke:#2bea21;stroke-width:0.5;stroke-linecap:butt;stroke-linejoin:miter;stroke-miterlimit:4;stroke-opacity:1"
       id="path1497" />
  </g>
</svg>
