<?xml version="1.0" encoding="UTF-8" standalone="no"?>
<!-- Created with Inkscape (http://www.inkscape.org/) -->
<svg xmlns:dc="http://purl.org/dc/elements/1.1/" xmlns:cc="http://web.resource.org/cc/" xmlns:rdf="http://www.w3.org/1999/02/22-rdf-syntax-ns#" xmlns:svg="http://www.w3.org/2000/svg" xmlns="http://www.w3.org/2000/svg" xmlns:sodipodi="http://sodipodi.sourceforge.net/DTD/sodipodi-0.dtd" xmlns:inkscape="http://www.inkscape.org/namespaces/inkscape" version="1.0" width="200" height="200" id="svg1307" sodipodi:version="0.32" inkscape:version="0.45.1" sodipodi:docname="band.svg" sodipodi:docbase="/home/ralexand/source/lizards/cxx/svg" inkscape:output_extension="org.inkscape.output.svg.inkscape">
  <metadata id="metadata29">
    <rdf:RDF>
      <cc:Work rdf:about="">
        <dc:format>image/svg+xml</dc:format>
        <dc:type rdf:resource="http://purl.org/dc/dcmitype/StillImage"/>
      </cc:Work>
    </rdf:RDF>
  </metadata>
  <sodipodi:namedview inkscape:cy="115.74695" inkscape:cx="45.397494" inkscape:zoom="2.7559939" inkscape:window-height="807" inkscape:window-width="966" inkscape:pageshadow="2" inkscape:pageopacity="0.0" borderopacity="1.0" bordercolor="#666666" pagecolor="#ffffff" id="base" inkscape:window-x="178" inkscape:window-y="26" inkscape:current-layer="svg1307"/>
  <defs id="defs1309"/>
  <path id="path387" d="M 58.612349,155.70188 L 58.612349,160.70188 L 63.612349,160.70188 L 63.612349,155.70188 L 58.612349,155.70188 z " style="fill:#000000;fill-opacity:1;fill-rule:nonzero;stroke:none"/>
  <path id="path389" d="M 58.612349,163.20188 L 58.612349,170.70188 L 61.112349,178.20188 L 63.612349,168.20188 L 63.612349,163.20188 L 58.612349,163.20188 z " style="fill:#000000;fill-opacity:1;fill-rule:nonzero;stroke:none"/>
  <path id="path391" d="M 61.112349,3.2018778 L 56.112349,10.701878 L 58.612349,15.701878 L 63.612349,15.701878 L 66.112349,10.701878 L 61.112349,3.2018778 z " style="fill:#000000;fill-opacity:1;fill-rule:nonzero;stroke:none"/>
  <path id="path393" d="M 58.612349,18.201878 L 58.612349,20.701878 L 33.612349,20.701878 L 33.612349,25.701878 L 58.612349,25.701878 L 58.612349,153.20188 L 63.612349,153.20188 L 63.612349,25.701878 L 88.612349,25.701878 L 88.612349,20.701878 L 63.612349,20.701878 L 63.612349,18.201878 L 58.612349,18.201878 z " style="fill:#000000;fill-opacity:1;fill-rule:nonzero;stroke:none"/>
  <path id="path395" d="M 36.112349,28.201878 L 36.112349,48.201879 L 33.612349,53.201879 L 28.612349,58.201879 L 26.112349,63.201879 L 38.612349,63.201879 L 41.112349,58.201879 L 41.112349,63.201879 L 68.612349,63.201879 L 71.112349,58.201879 L 76.112349,58.201879 L 73.612349,63.201879 L 76.112349,63.201879 L 83.612349,53.201879 L 86.112349,45.701879 L 86.112349,28.201878 L 63.612349,28.201878 L 36.112349,28.201878 z " style="fill:#f9ff04;fill-opacity:1;fill-rule:nonzero;stroke:#000000;stroke-opacity:1"/>
  <path id="path397" d="M 111.11235,180.70188 L 108.61235,175.70188 L 113.61235,175.70188 L 108.61235,170.70188 L 108.61235,155.70188 L 111.11235,150.70188 L 116.11235,148.20188 L 121.11235,148.20188 L 123.61235,153.20188 L 123.61235,170.70188 L 118.61235,175.70188 L 123.61235,175.70188 L 121.11235,180.70188 L 153.61235,180.70188 L 151.11235,175.70188 L 141.11235,170.70188 L 141.11235,150.70188 L 138.61235,145.70188 L 151.11235,138.20188 L 156.11235,128.20188 L 161.11235,103.20188 L 166.11235,98.201876 L 171.11235,95.701879 L 176.11235,100.70188 L 178.61235,105.70188 L 181.11235,100.70188 L 186.11235,98.201876 L 183.61235,95.701879 L 183.61235,93.201879 L 188.61235,85.701879 L 181.11235,88.201879 L 178.61235,88.201879 L 178.61235,80.701879 L 171.11235,85.701879 L 166.11235,85.701879 L 156.11235,90.701879 L 143.61235,118.20188 L 138.61235,125.70188 L 131.11235,130.70188 L 133.61235,123.20188 L 138.61235,120.70188 L 141.11235,115.70188 L 136.11235,115.70188 L 138.61235,110.70188 L 143.61235,108.20188 L 146.11235,103.20188 L 138.61235,100.70188 L 143.61235,93.201879 L 138.61235,90.701879 L 138.61235,88.201879 L 148.61235,85.701879 L 143.61235,80.701879 L 143.61235,75.701879 L 146.11235,68.201879 L 138.61235,68.201879 L 136.11235,63.201879 L 131.11235,65.701879 L 128.61235,60.701879 L 126.11235,65.701879 L 121.11235,65.701879 L 116.11235,70.701879 L 106.11235,73.201879 L 103.61235,70.701879 L 101.11235,75.701879 L 98.612346,73.201879 L 96.112346,78.201879 L 93.612349,80.701879 L 96.112346,85.701879 L 101.11235,88.201879 L 116.11235,85.701879 L 113.61235,90.701879 L 101.11235,93.201879 L 96.112346,95.701879 L 93.612349,93.201879 L 86.112349,93.201879 L 71.112349,95.701879 L 63.612349,93.201879 L 58.612349,93.201879 L 56.112349,93.201879 L 53.612349,95.701879 L 53.612349,100.70188 L 51.112349,103.20188 L 51.112349,105.70188 L 53.612349,108.20188 L 53.612349,110.70188 L 56.112349,113.20188 L 58.612349,113.20188 L 63.612349,113.20188 L 68.612349,108.20188 L 88.612349,108.20188 L 96.112346,105.70188 L 103.61235,108.20188 L 101.11235,110.70188 L 101.11235,118.20188 L 103.61235,120.70188 L 108.61235,128.20188 L 108.61235,133.20188 L 98.612346,143.20188 L 93.612349,153.20188 L 93.612349,168.20188 L 83.612349,173.20188 L 78.612349,178.20188 L 78.612349,180.70188 L 111.11235,180.70188 z " style="fill:#46b224;fill-opacity:1;fill-rule:nonzero;stroke:#000000;stroke-opacity:1"/>
  <path id="path399" d="M 126.11235,75.701879 L 118.61235,75.701879 L 126.11235,70.701879 L 126.11235,75.701879 z " style="fill:#ff0000;fill-opacity:1;fill-rule:nonzero;stroke:#000000;stroke-opacity:1"/>
</svg>