<?xml version="1.0" encoding="UTF-8" standalone="no"?>
<!-- Created with Inkscape (http://www.inkscape.org/) -->

<svg
   xmlns:dc="http://purl.org/dc/elements/1.1/"
   xmlns:cc="http://creativecommons.org/ns#"
   xmlns:rdf="http://www.w3.org/1999/02/22-rdf-syntax-ns#"
   xmlns:svg="http://www.w3.org/2000/svg"
   xmlns="http://www.w3.org/2000/svg"
   xmlns:sodipodi="http://sodipodi.sourceforge.net/DTD/sodipodi-0.dtd"
   xmlns:inkscape="http://www.inkscape.org/namespaces/inkscape"
   version="1.0"
   width="200"
   height="200"
   id="svg1307"
   sodipodi:version="0.32"
   inkscape:version="0.47 r22583"
   sodipodi:docname="ruin.svg"
   inkscape:output_extension="org.inkscape.output.svg.inkscape">
  <metadata
     id="metadata29">
    <rdf:RDF>
      <cc:Work
         rdf:about="">
        <dc:format>image/svg+xml</dc:format>
        <dc:type
           rdf:resource="http://purl.org/dc/dcmitype/StillImage" />
      </cc:Work>
    </rdf:RDF>
  </metadata>
  <sodipodi:namedview
     inkscape:cy="36.28562"
     inkscape:cx="128.72913"
     inkscape:zoom="7.7951279"
     inkscape:window-height="807"
     inkscape:window-width="966"
     inkscape:pageshadow="2"
     inkscape:pageopacity="0.0"
     borderopacity="1.0"
     bordercolor="#666666"
     pagecolor="#ffffff"
     id="base"
     inkscape:window-x="179"
     inkscape:window-y="26"
     inkscape:current-layer="svg1307"
     showgrid="false"
     inkscape:window-maximized="0" />
  <defs
     id="defs1309">
    <inkscape:perspective
       sodipodi:type="inkscape:persp3d"
       inkscape:vp_x="0 : 100 : 1"
       inkscape:vp_y="0 : 1000 : 0"
       inkscape:vp_z="200 : 100 : 1"
       inkscape:persp3d-origin="100 : 66.666667 : 1"
       id="perspective3060" />
  </defs>
  <path
     style="fill:#ead22d;stroke:#000000;stroke-width:0.97713757;stroke-linecap:square;stroke-linejoin:miter;stroke-miterlimit:10;stroke-opacity:1;fill-opacity:1"
     d="m 190.30835,160.97288 -46.98644,0.72569 0.36285,-6.00817 15.71498,0 0,-9.11358 -15.71498,0 0,-4.55679 20.95331,0 25.67028,18.95285 z"
     id="path5046"
     sodipodi:nodetypes="ccccccccc" />
  <path
     style="fill:#71523f;stroke:#000000;stroke-width:0.97713757;stroke-linecap:square;stroke-linejoin:miter;stroke-miterlimit:10;stroke-opacity:1;fill-opacity:1"
     d="m 5.3112507,188.67647 62.8598883,0 -0.02201,-21.19974 -10.454638,2.97258 0,-9.11358 -10.476649,0 0,27.34074 -3.057476,-0.12829 0,-28.4953 -3.335416,0.39018 -0.06411,10.13454 -4.019644,-0.12829 -5.238325,4.55679 -5.238324,-4.55679 0,9.11358 -5.238324,0 0,-18.22716 -5.238325,0 0.128285,24.90332 -5.494893,0 2.800903,-10.65832 -7.9109423,3.98216 0,9.11358 z"
     id="path6022"
     sodipodi:nodetypes="ccccccccccccccccccccccc" />
  <path
     style="fill:#9d4b19;stroke:#000000;stroke-width:0.97713757;stroke-linecap:square;stroke-linejoin:miter;stroke-miterlimit:10;stroke-opacity:1;fill-opacity:1"
     d="m 196.06801,188.99907 0,-19.6383 -18.60141,-14.12203 -2.35189,6.45983 -29.63019,-2.67197 -24.93014,2.30913 0,9.11358 -10.47665,0 0,9.11358 -5.47352,-0.51314 2.95056,-12.83385 -9.835221,2.82227 1.881537,5.96793 -8.039229,0.25657 -0.641427,-6.60935 -7.461915,0.83651 -4.810727,5.51627 0,-4.55679 -5.238324,0 0,-9.11358 10.476649,0 -5.238325,-4.55679 -5.238324,0 0,-13.67037 -5.238325,0 -0.0019,45.79334 127.898771,0.0972 z"
     id="path309"
     sodipodi:nodetypes="ccccccccccccccccccccccccccc" />
</svg>
