<?xml version="1.0" encoding="UTF-8" standalone="no"?>
<!-- Created with Inkscape (http://www.inkscape.org/) -->

<svg
   xmlns:dc="http://purl.org/dc/elements/1.1/"
   xmlns:cc="http://creativecommons.org/ns#"
   xmlns:rdf="http://www.w3.org/1999/02/22-rdf-syntax-ns#"
   xmlns:svg="http://www.w3.org/2000/svg"
   xmlns="http://www.w3.org/2000/svg"
   xmlns:sodipodi="http://sodipodi.sourceforge.net/DTD/sodipodi-0.dtd"
   xmlns:inkscape="http://www.inkscape.org/namespaces/inkscape"
   width="200"
   height="200"
   id="svg3033"
   sodipodi:version="0.32"
   inkscape:version="0.48.1 r9760"
   version="1.0"
   sodipodi:docname="whirlpool.svg"
   inkscape:output_extension="org.inkscape.output.svg.inkscape">
  <defs
     id="defs3035" />
  <sodipodi:namedview
     id="base"
     pagecolor="#ffffff"
     bordercolor="#666666"
     borderopacity="1.0"
     gridtolerance="10000"
     guidetolerance="10"
     objecttolerance="10"
     inkscape:pageopacity="0.0"
     inkscape:pageshadow="2"
     inkscape:zoom="3.959798"
     inkscape:cx="130.82685"
     inkscape:cy="94.198619"
     inkscape:document-units="px"
     inkscape:current-layer="layer1"
     inkscape:window-width="1213"
     inkscape:window-height="893"
     inkscape:window-x="0"
     inkscape:window-y="25"
     height="200px"
     width="200px"
     showgrid="false"
     inkscape:window-maximized="0" />
  <metadata
     id="metadata3038">
    <rdf:RDF>
      <cc:Work
         rdf:about="">
        <dc:format>image/svg+xml</dc:format>
        <dc:type
           rdf:resource="http://purl.org/dc/dcmitype/StillImage" />
      </cc:Work>
    </rdf:RDF>
  </metadata>
  <g
     inkscape:label="Layer 1"
     inkscape:groupmode="layer"
     id="layer1">
    <path
       id="path291"
       d="m 107.16501,93.612309 c -16.52616,-1.01769 -30.691954,0.587248 -41.164012,6.296336 l -20.203346,17.104125 -4.040669,17.10412 0,21.38016 8.081338,12.82809 c 14.095083,12.45619 30.146124,13.82862 46.214833,15.10093"
       style="fill:#00ffff;stroke:#000099;stroke-width:2.0783422;stroke-linecap:square;stroke-linejoin:miter;stroke-miterlimit:10;stroke-opacity:1"
       inkscape:connector-curvature="0"
       sodipodi:nodetypes="ccccccc" />
    <path
       id="path293"
       d="m 105.39754,100.41372 c 14.57856,1.47634 16.5202,1.27327 23.2338,6.02667 l 14.14237,14.84841 8.08134,17.10412 -4.04067,17.10413 -8.08134,17.10412 -12.12201,12.82809 c -12.627,2.11272 -25.25401,5.58513 -37.88101,3.26588"
       style="fill:#00ffff;stroke:#000099;stroke-width:2.0783422;stroke-linecap:square;stroke-linejoin:miter;stroke-miterlimit:10;stroke-opacity:1"
       inkscape:connector-curvature="0"
       sodipodi:nodetypes="cccccccc" />
    <path
       id="path295"
       d="m 114.48902,112.73674 -28.284677,-4.27604 -8.081338,0 -12.122007,12.8281 -8.081339,8.55206 0,12.82809 8.081339,12.8281 12.122007,8.55206 8.081338,0"
       style="fill:#00ffff;stroke:#000099;stroke-width:2.0783422;stroke-linecap:square;stroke-linejoin:miter;stroke-miterlimit:10;stroke-opacity:1"
       inkscape:connector-curvature="0" />
    <path
       id="path297"
       d="m 118.52969,121.2888 8.08134,8.55206 4.04067,12.82809 0,17.10413 -8.08134,12.82809 -8.08134,4.27603 -16.16267,0"
       style="fill:#00ffff;stroke:#000099;stroke-width:2.0783422;stroke-linecap:square;stroke-linejoin:miter;stroke-miterlimit:10;stroke-opacity:1"
       inkscape:connector-curvature="0" />
    <path
       id="path299"
       d="m 94.285681,121.2888 -8.081338,0 -8.081338,4.27603 -4.040669,8.55206 0,8.55206 8.081338,8.55207 8.081338,4.27603 8.081338,0 8.08134,-4.27603 4.04067,-8.55207 0,-4.27603"
       style="fill:#00ffff;fill-opacity:1;stroke:#000099;stroke-width:2.0783422;stroke-linecap:square;stroke-linejoin:miter;stroke-miterlimit:10;stroke-opacity:1"
       inkscape:connector-curvature="0" />
    <path
       id="path301"
       d="m 98.32635,129.84086 8.08134,0 8.08133,4.27603 4.04067,8.55206 0,8.55207 -4.04067,8.55206 -12.122,4.27603"
       style="fill:#00ffff;stroke:#000099;stroke-width:2.0783422;stroke-linecap:square;stroke-linejoin:miter;stroke-miterlimit:10;stroke-opacity:1"
       inkscape:connector-curvature="0" />
  </g>
</svg>
